<svg width="30" height="27" viewBox="0 0 30 27" fill="none" xmlns="http://www.w3.org/2000/svg">
<g clip-path="url(#clip0_102_959)">
<path d="M29.0889 10.5964C27.9605 8.93333 26.5371 7.4478 24.8752 6.19876L28.3752 3.04876C28.6029 2.83659 28.7289 2.55241 28.726 2.25744C28.7232 1.96246 28.5917 1.6803 28.36 1.47172C28.1282 1.26313 27.8147 1.14482 27.4869 1.14225C27.1592 1.13969 26.8434 1.25308 26.6077 1.45801L22.8014 4.88814C20.4419 3.62681 17.7445 2.96941 15.0002 2.98689C7.26144 2.98689 2.85144 7.75464 0.911436 10.5964C0.312096 11.4688 -0.00537109 12.4743 -0.00537109 13.5C-0.00537109 14.5257 0.312096 15.5312 0.911436 16.4036C2.03988 18.0667 3.4633 19.5522 5.12519 20.8013L1.62519 23.9513C1.5058 24.055 1.41057 24.1792 1.34506 24.3164C1.27955 24.4537 1.24507 24.6013 1.24362 24.7507C1.24218 24.9001 1.27381 25.0482 1.33666 25.1865C1.39951 25.3247 1.49233 25.4503 1.60969 25.556C1.72706 25.6616 1.86662 25.7451 2.02024 25.8017C2.17386 25.8583 2.33846 25.8867 2.50444 25.8854C2.67041 25.8841 2.83444 25.8531 2.98694 25.7941C3.13945 25.7352 3.27738 25.6495 3.39269 25.542L7.20769 22.1085C9.56427 23.3696 12.2585 24.0282 15.0002 24.0131C22.7389 24.0131 27.1489 19.2454 29.0889 16.4036C29.6883 15.5312 30.0057 14.5257 30.0057 13.5C30.0057 12.4743 29.6883 11.4688 29.0889 10.5964ZM3.04144 15.2258C2.68536 14.7072 2.49675 14.1096 2.49675 13.5C2.49675 12.8904 2.68536 12.2928 3.04144 11.7743C4.70894 9.33751 8.47769 5.23689 15.0002 5.23689C17.0755 5.22642 19.1217 5.67658 20.9577 6.54751L18.4414 8.81214C17.2414 8.09506 15.8026 7.77376 14.3692 7.90274C12.9359 8.03172 11.5963 8.60304 10.5777 9.51976C9.55911 10.4365 8.9243 11.6421 8.78099 12.9321C8.63768 14.2222 8.99469 15.5171 9.79144 16.5971L6.90394 19.1959C5.37281 18.0818 4.06623 16.7388 3.04144 15.2258ZM18.7502 13.5C18.7502 14.3951 18.3551 15.2536 17.6518 15.8865C16.9486 16.5194 15.9947 16.875 15.0002 16.875C14.4433 16.8731 13.8942 16.7577 13.3939 16.5375L18.3752 12.0544C18.6198 12.5046 18.748 12.9988 18.7502 13.5ZM11.2502 13.5C11.2502 12.6049 11.6453 11.7465 12.3485 11.1135C13.0518 10.4806 14.0056 10.125 15.0002 10.125C15.557 10.127 16.1062 10.2423 16.6064 10.4625L11.6252 14.9456C11.3805 14.4954 11.2523 14.0012 11.2502 13.5ZM26.9589 15.2258C25.2914 17.6625 21.5227 21.7631 15.0002 21.7631C12.9248 21.7736 10.8786 21.3234 9.04269 20.4525L11.5589 18.1879C12.759 18.905 14.1978 19.2263 15.6311 19.0973C17.0645 18.9683 18.4041 18.397 19.4227 17.4803C20.4413 16.5635 21.0761 15.3579 21.2194 14.0679C21.3627 12.7779 21.0057 11.483 20.2089 10.4029L23.0964 7.80414C24.6276 8.9182 25.9341 10.2612 26.9589 11.7743C27.315 12.2928 27.5036 12.8904 27.5036 13.5C27.5036 14.1096 27.315 14.7072 26.9589 15.2258Z" fill="#BBBBBB"/>
</g>
<defs>
<clipPath id="clip0_102_959">
<rect width="30" height="27" fill="white"/>
</clipPath>
</defs>
</svg>
