<svg width="67" height="67" viewBox="0 0 67 67" fill="none" xmlns="http://www.w3.org/2000/svg">
<rect x="1.5" y="1.5" width="64" height="64" rx="32" fill="white"/>
<rect x="1.5" y="1.5" width="64" height="64" rx="32" stroke="#6A70F7" stroke-width="3"/>
<path d="M51 35.5C51.8284 35.5 52.5 34.8284 52.5 34C52.5 33.1716 51.8284 32.5 51 32.5V35.5ZM17.9393 32.9393C17.3536 33.5251 17.3536 34.4749 17.9393 35.0607L27.4853 44.6066C28.0711 45.1924 29.0208 45.1924 29.6066 44.6066C30.1924 44.0208 30.1924 43.0711 29.6066 42.4853L21.1213 34L29.6066 25.5147C30.1924 24.9289 30.1924 23.9792 29.6066 23.3934C29.0208 22.8076 28.0711 22.8076 27.4853 23.3934L17.9393 32.9393ZM51 32.5L19 32.5V35.5L51 35.5V32.5Z" fill="#939393"/>
</svg>
