<svg width="25" height="25" viewBox="0 0 25 25" fill="none" xmlns="http://www.w3.org/2000/svg">
    <path
        d="M20.313 0H10.938C10.0755 0 9.37552 0.698958 9.37552 1.5625C9.37552 2.42604 10.0755 3.125 10.938 3.125H19.6661L0.457813 22.3323C-0.152604 22.9417 -0.152604 23.9323 0.457813 24.5417C0.763021 24.8469 1.16302 24.999 1.56302 24.999C1.96302 24.999 2.36302 24.8469 2.66823 24.5417L21.8755 5.33438V14.0625C21.8755 14.926 22.5755 15.625 23.438 15.625C24.3005 15.625 25.0005 14.926 25.0005 14.0625V4.6875C25.0005 2.10313 22.8974 0 20.313 0Z"
        fill="#C1A0EC" />
</svg>
    