<svg width="473" height="198" viewBox="0 0 473 198" fill="none" xmlns="http://www.w3.org/2000/svg">
<path d="M352 138C354.87 137.907 450.291 142.096 456 151.5L456 174.5" stroke="#6A70F7" stroke-width="10"/>
<path d="M432.5 64C463.292 64.4958 455.617 107.426 456 132" stroke="#6A70F7" stroke-width="10"/>
<rect x="30.0756" y="17.9557" width="319.614" height="156.893" rx="15" fill="white" stroke="#515151" stroke-width="10"/>
<path d="M30.5 22.5L96.005 28.7601C114.433 40.7228 113.804 47.2465 110.608 58.8513L96.0049 98.4886L68.8849 98.4887L38.277 98.4887" stroke="#515151" stroke-width="10"/>
<path d="M33 98H93.4211L115 126.676V173" stroke="#515151" stroke-width="10"/>
<path d="M241.045 98.0299C241.045 137.676 210.19 169.478 172.537 169.478C134.885 169.478 104.03 137.676 104.03 98.0299C104.03 58.3837 134.885 26.5821 172.537 26.5821C210.19 26.5821 241.045 58.3837 241.045 98.0299Z" fill="white" stroke="#6A70F7" stroke-width="10"/>
<path d="M204.253 175.954C248.57 110.536 280.813 76.8364 343.267 18.7143" stroke="#515151" stroke-width="10"/>
<path d="M193.063 18.4597C261.793 75.6988 295.399 109.662 347.241 173.268" stroke="#515151" stroke-width="10"/>
<path d="M352.225 64.2164L351.887 177.418" stroke="#515151" stroke-width="4"/>
<path d="M354.689 64.2166L433.964 64.2166" stroke="#515151" stroke-width="10"/>
<path d="M354.689 128.073L460.687 127.433" stroke="#515151" stroke-width="10"/>
<path d="M328.373 192.119C328.373 188.872 331.006 186.239 334.254 186.239H394.08H454.806C458.054 186.239 460.687 188.872 460.687 192.119C460.687 195.367 458.054 198 454.806 198H334.254C331.006 198 328.373 195.367 328.373 192.119Z" fill="#6A70F7"/>
<path d="M25.5223 192.119C25.5223 188.872 28.1552 186.239 31.4029 186.239H107.291H184.298C187.546 186.239 190.179 188.872 190.179 192.119C190.179 195.367 187.546 198 184.298 198H31.4029C28.1552 198 25.5223 195.367 25.5223 192.119Z" fill="#6A70F7"/>
<path d="M340.134 173.008L460.687 173.008" stroke="#515151" stroke-width="10"/>
</svg>
