<svg width="69" height="30" viewBox="0 0 69 30" fill="none" xmlns="http://www.w3.org/2000/svg">
    <g clip-path="url(#clip0_2392_8)">
        <path
            d="M2 13.0004C0.895431 13.0004 9.65645e-08 13.8958 0 15.0004C-9.65645e-08 16.105 0.89543 17.0004 2 17.0004V13.0004ZM68.4142 16.4146C69.1953 15.6336 69.1953 14.3672 68.4142 13.5862L55.6863 0.858248C54.9052 0.0771988 53.6389 0.0771987 52.8579 0.858248C52.0768 1.6393 52.0768 2.90563 52.8579 3.68668L64.1716 15.0004L52.8579 26.3141C52.0768 27.0952 52.0768 28.3615 52.8579 29.1425C53.6389 29.9236 54.9052 29.9236 55.6863 29.1425L68.4142 16.4146ZM2 17.0004H67V13.0004H2V17.0004Z"
            fill="#BBBBBB" />
    </g>
    <defs>
        <clipPath id="clip0_2392_8">
            <rect width="69" height="30" fill="white" />
        </clipPath>
    </defs>
</svg>
    