<svg width="69" height="30" viewBox="0 0 69 30" fill="none" xmlns="http://www.w3.org/2000/svg">
    <g clip-path="url(#clip0_2392_6)">
        <path
            d="M67 17.0004C68.1046 17.0004 69 16.105 69 15.0004C69 13.8958 68.1046 13.0004 67 13.0004V17.0004ZM0.585783 13.5862C-0.195261 14.3672 -0.195261 15.6336 0.585783 16.4146L13.3137 29.1425C14.0948 29.9236 15.3611 29.9236 16.1421 29.1425C16.9232 28.3615 16.9232 27.0952 16.1421 26.3141L4.82843 15.0004L16.1421 3.68667C16.9232 2.90562 16.9232 1.63929 16.1421 0.858247C15.3611 0.0771989 14.0948 0.0771989 13.3137 0.858247L0.585783 13.5862ZM67 13.0004H2V17.0004H67V13.0004Z"
            fill="#BBBBBB" />
    </g>
    <defs>
        <clipPath id="clip0_2392_6">
            <rect width="69" height="30" fill="white" />
        </clipPath>
    </defs>
</svg>
    