<svg width="25" height="25" viewBox="0 0 25 25" fill="none" xmlns="http://www.w3.org/2000/svg">
    <g clip-path="url(#clip0_2212_221)">
        <path
            d="M20.312 0H10.937C10.0745 0 9.37454 0.698958 9.37454 1.5625C9.37454 2.42604 10.0745 3.125 10.937 3.125H19.6652L0.456836 22.3323C-0.153581 22.9417 -0.153581 23.9323 0.456836 24.5417C0.762044 24.8469 1.16204 24.999 1.56204 24.999C1.96204 24.999 2.36204 24.8469 2.66725 24.5417L21.8745 5.33438V14.0625C21.8745 14.926 22.5745 15.625 23.437 15.625C24.2995 15.625 24.9995 14.926 24.9995 14.0625V4.6875C24.9995 2.10313 22.8964 0 20.312 0Z"
            fill="white" />
    </g>
    <defs>
        <clipPath id="clip0_2212_221">
            <rect width="25" height="25" fill="white" />
        </clipPath>
    </defs>
</svg>
    