<svg width="21" height="30" viewBox="0 0 21 30" fill="none" xmlns="http://www.w3.org/2000/svg">
    <g clip-path="url(#clip0_2212_162)">
        <path
            d="M19.5293 5.53876L7.43767 22.8113C7.35637 22.9279 7.25976 23.0204 7.15337 23.0835C7.04699 23.1466 6.93293 23.1791 6.81773 23.1791C6.70253 23.1791 6.58847 23.1466 6.48208 23.0835C6.3757 23.0204 6.27909 22.9279 6.19779 22.8113L1.52179 16.125C1.4405 16.0084 1.34388 15.9159 1.2375 15.8528C1.13111 15.7896 1.01705 15.7571 0.901855 15.7571C0.786658 15.7571 0.672594 15.7896 0.56621 15.8528C0.459825 15.9159 0.363213 16.0084 0.281917 16.125C0.2003 16.2411 0.135539 16.3792 0.0913501 16.5311C0.0471611 16.6831 0.0244141 16.8461 0.0244141 17.0106C0.0244141 17.1752 0.0471611 17.3381 0.0913501 17.4901C0.135539 17.6421 0.2003 17.7801 0.281917 17.8963L4.95967 24.5775C5.45312 25.2811 6.12184 25.6763 6.81904 25.6763C7.51624 25.6763 8.18496 25.2811 8.67842 24.5775L20.7692 7.30876C20.8507 7.19265 20.9153 7.05471 20.9594 6.90284C21.0035 6.75098 21.0262 6.58818 21.0262 6.42376C21.0262 6.25934 21.0035 6.09654 20.9594 5.94468C20.9153 5.79281 20.8507 5.65487 20.7692 5.53876C20.6879 5.42216 20.5913 5.32965 20.4849 5.26652C20.3785 5.20339 20.2644 5.1709 20.1492 5.1709C20.034 5.1709 19.92 5.20339 19.8136 5.26652C19.7072 5.32965 19.6106 5.42216 19.5293 5.53876Z"
            fill="#515151" />
    </g>
    <defs>
        <clipPath id="clip0_2212_162">
            <rect width="21" height="30" fill="white" />
        </clipPath>
    </defs>
</svg>
    