<svg width="36" height="24" viewBox="0 0 36 24" fill="none" xmlns="http://www.w3.org/2000/svg">
<path id="Arrow 3" d="M2 13.5C1.17157 13.5 0.5 12.8284 0.5 12C0.5 11.1716 1.17157 10.5 2 10.5L2 13.5ZM35.0607 10.9393C35.6464 11.5251 35.6464 12.4749 35.0607 13.0607L25.5147 22.6066C24.9289 23.1924 23.9792 23.1924 23.3934 22.6066C22.8076 22.0208 22.8076 21.0711 23.3934 20.4853L31.8787 12L23.3934 3.51472C22.8076 2.92893 22.8076 1.97919 23.3934 1.3934C23.9792 0.807611 24.9289 0.807611 25.5147 1.3934L35.0607 10.9393ZM2 10.5L34 10.5V13.5L2 13.5L2 10.5Z" fill="#515151"/>
</svg>
