<svg width="291" height="291" viewBox="0 0 291 291" fill="none" xmlns="http://www.w3.org/2000/svg">
<path d="M287.443 270.297L215.125 197.978C232.249 177.057 242.558 150.351 242.558 121.28C242.558 54.4064 188.152 0 121.279 0C54.4058 0 0 54.4064 0 121.28C0 188.154 54.4058 242.561 121.279 242.561C150.362 242.561 177.067 232.252 197.976 215.127L270.295 287.447C272.66 289.811 275.764 291 278.869 291C281.974 291 285.079 289.811 287.443 287.447C292.185 282.704 292.185 275.04 287.443 270.297ZM121.279 218.305C67.7829 218.305 24.2558 174.777 24.2558 121.28C24.2558 67.7836 67.7829 24.2561 121.279 24.2561C174.775 24.2561 218.302 67.7836 218.302 121.28C218.302 174.777 174.775 218.305 121.279 218.305ZM166.164 93.398L138.355 121.208L166.164 149.017C170.906 153.759 170.906 161.424 166.164 166.166C163.799 168.531 160.695 169.72 157.59 169.72C154.485 169.72 151.381 168.531 149.016 166.166L121.206 138.357L93.397 166.166C91.0321 168.531 87.9273 169.72 84.8226 169.72C81.7178 169.72 78.6131 168.531 76.2481 166.166C71.5061 161.424 71.5061 153.759 76.2481 149.017L104.057 121.208L76.2481 93.398C71.5061 88.6559 71.5061 80.991 76.2481 76.2489C80.9902 71.5069 88.655 71.5069 93.397 76.2489L121.206 104.059L149.016 76.2489C153.758 71.5069 161.422 71.5069 166.164 76.2489C170.906 80.991 170.906 88.6559 166.164 93.398Z" fill="#BBBBBB"/>
</svg>
