<svg width="50" height="50" viewBox="0 0 50 50" fill="none" xmlns="http://www.w3.org/2000/svg">
<rect width="50" height="50" rx="25" fill="#E8D6FF"/>
<g clip-path="url(#clip0_2212_554)">
<path d="M37.5427 35.3388L32.704 30.498C36.3245 25.6597 35.3373 18.8024 30.499 15.1819C25.6607 11.5614 18.8034 12.5486 15.1829 17.3869C11.5623 22.2252 12.5495 29.0825 17.3878 32.703C21.2744 35.6113 26.6124 35.6113 30.499 32.703L35.3397 37.5437C35.9481 38.1521 36.9343 38.1521 37.5426 37.5437C38.1509 36.9354 38.1509 35.9491 37.5426 35.3409L37.5427 35.3388ZM23.9838 31.7687C19.6837 31.7687 16.1979 28.2828 16.1979 23.9828C16.1979 19.6827 19.6837 16.1969 23.9838 16.1969C28.2838 16.1969 31.7697 19.6827 31.7697 23.9828C31.7651 28.2809 28.2819 31.7641 23.9838 31.7687Z" fill="#515151"/>
</g>
<defs>
<clipPath id="clip0_2212_554">
<rect width="25" height="25" fill="white" transform="translate(13 13)"/>
</clipPath>
</defs>
</svg>
