<svg width="73" height="73" viewBox="0 0 73 73" fill="none" xmlns="http://www.w3.org/2000/svg">
<g id="button share">
<rect x="1.5" y="1.5" width="70" height="70" rx="35" stroke="#939393" stroke-width="3"/>
<g id="01 align center">
<path id="Vector" d="M48.4558 40.8448C47.2252 40.8458 46.0133 41.1466 44.9247 41.7211C43.8362 42.2957 42.9036 43.1268 42.2075 44.1427L31.6134 39.3539C32.3659 37.5349 32.3688 35.4918 31.6216 33.6706L42.201 28.8575C43.2326 30.3512 44.765 31.4253 46.5199 31.8849C48.2749 32.3445 50.1363 32.1592 51.7665 31.3626C53.3967 30.566 54.6878 29.2109 55.4054 27.543C56.123 25.8751 56.2198 24.005 55.678 22.2718C55.1363 20.5386 53.992 19.0572 52.4527 18.0963C50.9134 17.1354 49.0811 16.7586 47.2881 17.0343C45.4951 17.31 43.8601 18.2199 42.6799 19.599C41.4996 20.9781 40.8521 22.735 40.8549 24.551C40.8618 24.9808 40.9054 25.4093 40.9851 25.8317L29.7385 30.948C28.6583 29.9348 27.306 29.2596 25.8478 29.0053C24.3896 28.751 22.8889 28.9287 21.5302 29.5165C20.1714 30.1043 19.0138 31.0766 18.1994 32.314C17.3851 33.5514 16.9496 34.9999 16.9463 36.4817C16.9431 37.9635 17.3722 39.414 18.1811 40.655C18.99 41.8959 20.1434 42.8733 21.4996 43.4671C22.8557 44.0608 24.3556 44.2451 25.8149 43.9972C27.2742 43.7493 28.6294 43.0801 29.714 42.0717L40.99 47.1684C40.9117 47.5905 40.8687 48.0183 40.8614 48.4475C40.8611 49.9516 41.3064 51.4221 42.1409 52.6728C42.9755 53.9236 44.1618 54.8985 45.5498 55.4743C46.9379 56.05 48.4653 56.2008 49.9389 55.9074C51.4126 55.614 52.7662 54.8898 53.8286 53.8262C54.891 52.7626 55.6145 51.4075 55.9076 49.9322C56.2006 48.457 56.05 46.9279 55.4749 45.5383C54.8998 44.1487 53.9259 42.9611 52.6765 42.1257C51.4271 41.2902 49.9583 40.8445 48.4558 40.8448ZM48.4558 20.2055C49.3144 20.2051 50.1538 20.4597 50.8679 20.937C51.5819 21.4143 52.1386 22.0929 52.4673 22.8869C52.7961 23.6809 52.8823 24.5547 52.715 25.3978C52.5477 26.2408 52.1344 27.0153 51.5274 27.6232C50.9204 28.2311 50.147 28.6451 49.3049 28.8129C48.4628 28.9808 47.5899 28.8948 46.7967 28.5659C46.0034 28.2371 45.3254 27.6801 44.8483 26.9654C44.3713 26.2508 44.1166 25.4105 44.1166 24.551C44.1175 23.399 44.5749 22.2945 45.3884 21.4798C46.2019 20.665 47.3051 20.2067 48.4558 20.2055ZM24.5855 40.8448C23.7269 40.8451 22.8875 40.5905 22.1734 40.1132C21.4594 39.6359 20.9027 38.9574 20.5739 38.1633C20.2452 37.3693 20.159 36.4955 20.3263 35.6525C20.4936 34.8094 20.9069 34.035 21.5139 33.4271C22.1209 32.8192 22.8943 32.4051 23.7364 32.2373C24.5785 32.0695 25.4514 32.1555 26.2446 32.4843C27.0379 32.8132 27.7159 33.3702 28.193 34.0848C28.67 34.7995 28.9247 35.6397 28.9247 36.4992C28.9234 37.6511 28.4658 38.7554 27.6524 39.57C26.839 40.3846 25.7361 40.8431 24.5855 40.8448ZM48.4558 52.793C47.5973 52.793 46.758 52.5382 46.0442 52.0607C45.3304 51.5832 44.774 50.9045 44.4454 50.1105C44.1169 49.3164 44.0309 48.4427 44.1984 47.5997C44.3659 46.7568 44.7793 45.9825 45.3864 45.3747C45.9935 44.767 46.7669 44.3531 47.609 44.1854C48.451 44.0178 49.3238 44.1038 50.117 44.4327C50.9101 44.7616 51.5881 45.3186 52.0651 46.0332C52.542 46.7478 52.7966 47.588 52.7966 48.4475C52.7957 49.5997 52.3381 50.7045 51.5243 51.5193C50.7104 52.3341 49.6068 52.7922 48.4558 52.793Z" fill="#939393"/>
</g>
</g>
</svg>
