<svg xmlns="http://www.w3.org/2000/svg" width="22" height="22" viewBox="0 0 22 22" fill="none">
    <g clip-path="url(#clip0_2198_359)">
        <path
            d="M13.1292 11.0024L21.6328 2.24361C22.2055 1.6534 22.0967 0.788243 21.3877 0.310758C20.6787 -0.167643 19.6421 -0.0750789 19.0694 0.515133L11.0078 8.81842L2.94609 0.515133C1.58196 -0.876997 -0.967125 0.842316 0.382714 2.24453L8.88626 11.0033L0.382714 19.7612C-0.189978 20.3514 -0.0811558 21.2165 0.62784 21.694C1.33134 22.1697 2.3712 22.0826 2.94609 21.4897L11.0078 13.1864L19.0694 21.4897C19.6454 22.0826 20.6853 22.1697 21.3877 21.694C22.0967 21.2165 22.2055 20.3505 21.6328 19.7612L13.1292 11.0024Z"
            fill="#939393" />
    </g>
</svg>