<svg width="62" height="62" viewBox="0 0 62 62" fill="none" xmlns="http://www.w3.org/2000/svg">
<rect width="62" height="62" rx="31" fill="#E0C8FF"/>
<path d="M40.1231 28.2691C40.4766 28.2691 40.8106 28.1055 41.0269 27.8263C41.2431 27.5472 41.3186 27.1834 41.2316 26.8413C40.8758 25.449 40.1505 24.1768 39.1346 23.1609L35.1476 19.1739C33.6352 17.6615 31.6239 16.8286 29.4846 16.8286H24.3192C21.1662 16.8286 18.6001 19.3947 18.6001 22.5489V38.5655C18.6001 41.7197 21.1662 44.2858 24.3203 44.2858H27.7525C28.384 44.2858 28.8965 43.7732 28.8965 43.1417C28.8965 42.5102 28.384 41.9977 27.7525 41.9977H24.3203C22.4281 41.9977 20.8882 40.4578 20.8882 38.5655V22.5489C20.8882 20.6566 22.4281 19.1167 24.3203 19.1167H29.4857C29.6722 19.1167 29.8575 19.1259 30.0406 19.143V24.8369C30.0406 26.7292 31.5805 28.2691 33.4727 28.2691H40.1231ZM32.3287 24.8369V19.8706C32.7623 20.12 33.1661 20.4289 33.5299 20.7927L37.5169 24.7797C37.8762 25.139 38.1839 25.544 38.4356 25.981H33.4727C32.8423 25.981 32.3287 25.4673 32.3287 24.8369ZM45.0528 30.4188C43.7554 29.1214 41.4948 29.1214 40.1986 30.4188L32.5254 38.0919C31.6617 38.9556 31.1846 40.1054 31.1846 41.3284V43.1429C31.1846 43.7744 31.6972 44.2869 32.3287 44.2869H34.1431C35.3661 44.2869 36.5147 43.8098 37.3785 42.9461L45.0516 35.273C45.7003 34.6243 46.0572 33.7628 46.0572 32.8453C46.0572 31.9278 45.7003 31.0663 45.0528 30.4188ZM43.4339 33.6541L35.7597 41.3273C35.3284 41.7597 34.754 41.9977 34.142 41.9977H33.4716V41.3273C33.4716 40.7163 33.7095 40.142 34.142 39.7096L41.8163 32.0364C42.2476 31.604 43.0015 31.604 43.4339 32.0364C43.6502 32.2515 43.7691 32.5387 43.7691 32.8453C43.7691 33.1519 43.6502 33.4379 43.4339 33.6541Z" fill="white"/>
</svg>
