<svg xmlns="http://www.w3.org/2000/svg" width="45" height="45" viewBox="0 0 45 45" fill="none">
    <g clip-path="url(#clip0_2198_448)">
        <path
            d="M22.5 0C10.0931 0 0 10.0931 0 22.5C0 34.9069 10.0931 45 22.5 45C34.9069 45 45 34.9069 45 22.5C45 10.0931 34.9069 0 22.5 0ZM22.5 43.125C11.1281 43.125 1.875 33.8719 1.875 22.5C1.875 11.1281 11.1281 1.875 22.5 1.875C33.8719 1.875 43.125 11.1281 43.125 22.5C43.125 33.8719 33.8719 43.125 22.5 43.125Z"
            fill="#515151" />
        <path
            d="M32.8125 21.5625H13.305C13.4231 21.2306 13.5956 20.9156 13.8431 20.6381C14.3419 20.0738 14.8313 19.5375 15.1875 19.1813L20.49 13.7831C20.8538 13.4138 20.8481 12.8194 20.4788 12.4556C20.1075 12.0938 19.5131 12.0975 19.1531 12.4669L13.8563 17.8594C13.485 18.2306 12.9656 18.7969 12.4388 19.3931C10.8694 21.1631 10.8694 23.8331 12.4388 25.6031C12.9675 26.1994 13.4869 26.7675 13.8506 27.1313L19.1531 32.5294C19.3369 32.7169 19.5788 32.8088 19.8206 32.8088C20.0569 32.8088 20.295 32.7188 20.4788 32.5406C20.8481 32.1769 20.8538 31.5844 20.49 31.2131L15.1819 25.8094C14.8313 25.4588 14.3419 24.9225 13.8413 24.3581C13.5956 24.0806 13.4213 23.7656 13.305 23.4338H32.8125C33.33 23.4338 33.75 23.0138 33.75 22.4963C33.75 21.9788 33.33 21.5588 32.8125 21.5588V21.5625Z"
            fill="#515151" />
    </g>
</svg>
    