<svg xmlns="http://www.w3.org/2000/svg" width="51" height="51" viewBox="0 0 51 51" fill="none">
    <path
        d="M29.7497 51C29.2899 51 28.8425 50.8509 28.4747 50.575L19.9747 44.2C19.7107 44.0021 19.4965 43.7454 19.349 43.4503C19.2015 43.1553 19.1247 42.8299 19.1247 42.5V30.5575L4.21565 13.7849C3.15681 12.5904 2.46546 11.1155 2.2247 9.5375C1.98394 7.95951 2.20401 6.34557 2.85847 4.88965C3.51292 3.43374 4.57391 2.1978 5.91391 1.33039C7.25391 0.46298 8.81591 0.00100814 10.4122 0L40.5872 0C42.1833 0.00187223 43.7449 0.464609 45.0843 1.3326C46.4238 2.2006 47.4841 3.43692 48.1379 4.89299C48.7916 6.34907 49.011 7.96296 48.7696 9.54071C48.5283 11.1185 47.8364 12.593 46.7773 13.787L31.8747 30.5575V48.875C31.8747 49.4386 31.6508 49.9791 31.2523 50.3776C30.8537 50.7761 30.3132 51 29.7497 51ZM23.3747 41.4375L27.6247 44.625V29.75C27.6251 29.2297 27.8164 28.7277 28.1623 28.339L43.6068 10.9629C44.1218 10.3808 44.4578 9.66246 44.5746 8.89409C44.6913 8.12571 44.5839 7.33997 44.265 6.63118C43.9462 5.9224 43.4296 5.3207 42.7772 4.89831C42.1248 4.47593 41.3643 4.25082 40.5872 4.25H10.4122C9.63536 4.25118 8.8754 4.47641 8.22341 4.89869C7.57143 5.32097 7.05509 5.92236 6.73634 6.63074C6.41759 7.33913 6.30996 8.12442 6.42635 8.89245C6.54274 9.66047 6.87821 10.3786 7.39253 10.9607L22.8392 28.339C23.1843 28.728 23.3748 29.23 23.3747 29.75V41.4375Z"
        fill="#CBA3FF" />
</svg>