<svg xmlns="http://www.w3.org/2000/svg" width="25" height="25" viewBox="0 0 25 25" fill="none">
    <g clip-path="url(#clip0_2198_297)">
        <path
            d="M25 12.4998C25 17.0946 21.2615 20.8331 16.6667 20.8331H3.125L5.51354 23.2216C5.92083 23.6289 5.92083 24.2873 5.51354 24.6946C5.31042 24.8977 5.04375 24.9998 4.77708 24.9998C4.51042 24.9998 4.24375 24.8977 4.04062 24.6946L0.610417 21.2644C-0.202083 20.4529 -0.202083 19.13 0.610417 18.3185L4.04062 14.8883C4.44792 14.481 5.10625 14.481 5.51354 14.8883C5.92083 15.2956 5.92083 15.9539 5.51354 16.3612L3.125 18.7498H16.6667C20.1135 18.7498 22.9167 15.9466 22.9167 12.4998C22.9167 11.9237 23.3833 11.4581 23.9583 11.4581C24.5333 11.4581 25 11.9237 25 12.4998ZM1.04167 13.5414C1.61667 13.5414 2.08333 13.0758 2.08333 12.4998C2.08333 9.0529 4.88646 6.24977 8.33333 6.24977H21.875L19.4865 8.63831C19.0792 9.04561 19.0792 9.70394 19.4865 10.1112C19.6896 10.3144 19.9562 10.4164 20.2229 10.4164C20.4896 10.4164 20.7563 10.3144 20.9594 10.1112L24.3896 6.68102C25.2021 5.86956 25.2021 4.54665 24.3896 3.73519L20.9594 0.30498C20.5521 -0.102311 19.8937 -0.102311 19.4865 0.30498C19.0792 0.712272 19.0792 1.37061 19.4865 1.7779L21.875 4.16644H8.33333C3.73854 4.16644 0 7.90498 0 12.4998C0 13.0758 0.466667 13.5414 1.04167 13.5414Z"
            fill="#515151" />
    </g>
</svg>