<svg xmlns="http://www.w3.org/2000/svg" width="82" height="82" viewBox="0 0 82 82" fill="none">
    <g clip-path="url(#clip0_2198_261)">
        <path fill-rule="evenodd" clip-rule="evenodd"
            d="M41 0C18.3578 0 0 18.3578 0 41C0 63.6423 18.3578 82 41 82C63.6423 82 82 63.6423 82 41C82 18.3578 63.6423 0 41 0ZM60.0035 27.8834C59.3885 34.3648 56.7167 50.0986 55.3602 57.359C54.7862 60.434 53.6519 61.4624 52.5586 61.5615C50.1772 61.7802 48.3698 59.9864 46.0635 58.4762C42.4555 56.1119 40.4158 54.6393 36.9137 52.3297C32.8649 49.6613 35.4889 48.1955 37.7952 45.8004C38.3999 45.1717 48.8891 35.629 49.0941 34.7646C49.118 34.6553 49.1453 34.2521 48.9028 34.0403C48.6602 33.8284 48.3083 33.9002 48.0554 33.9583C47.6932 34.0403 41.9293 37.8498 30.7603 45.387C29.1237 46.5111 27.6408 47.0578 26.3118 47.0304C24.8494 46.9997 22.0341 46.2036 19.9397 45.5203C17.3738 44.6866 15.3306 44.2424 15.5083 42.8279C15.6005 42.0899 16.6153 41.3348 18.5559 40.5627C30.5074 35.3557 38.4785 31.9219 42.4658 30.2614C53.8535 25.5259 56.2178 24.7025 57.7622 24.6752C59.696 24.6478 60.1607 26.2434 60.0035 27.8834Z"
            fill="#CBA4FF" />
    </g>
</svg>