<svg width="18" height="18" viewBox="0 0 18 18" fill="none" xmlns="http://www.w3.org/2000/svg">
<g id="Layer_1" clip-path="url(#clip0_2011_381)">
<path id="Vector" d="M14.6244 0H7.8744C7.2534 0 6.7494 0.50325 6.7494 1.125C6.7494 1.74675 7.2534 2.25 7.8744 2.25H14.1586L0.328648 16.0793C-0.110852 16.518 -0.110852 17.2313 0.328648 17.67C0.548398 17.8898 0.836398 17.9993 1.1244 17.9993C1.4124 17.9993 1.7004 17.8898 1.92015 17.67L15.7494 3.84075V10.125C15.7494 10.7468 16.2534 11.25 16.8744 11.25C17.4954 11.25 17.9994 10.7468 17.9994 10.125V3.375C17.9994 1.51425 16.4851 0 14.6244 0Z" fill="#666666"/>
</g>
<defs>
<clipPath id="clip0_2011_381">
<rect width="18" height="18" fill="white"/>
</clipPath>
</defs>
</svg>
