<svg width="40" height="35" viewBox="0 0 40 35" fill="none" xmlns="http://www.w3.org/2000/svg">
<g clip-path="url(#clip0_2212_733)">
<path d="M21.1565 21.875C20.6675 21.875 20.1986 22.0286 19.8529 22.3021C19.5072 22.5756 19.3129 22.9466 19.3129 23.3333V27.7083C19.3129 28.8687 18.7302 29.9815 17.693 30.8019C16.6558 31.6224 15.2491 32.0833 13.7823 32.0833H9.2177C7.75089 32.0833 6.34415 31.6224 5.30696 30.8019C4.26977 29.9815 3.68708 28.8687 3.68708 27.7083V7.29167C3.68708 6.13134 4.26977 5.01855 5.30696 4.19807C6.34415 3.3776 7.75089 2.91667 9.2177 2.91667H13.7823C15.2491 2.91667 16.6558 3.3776 17.693 4.19807C18.7302 5.01855 19.3129 6.13134 19.3129 7.29167V11.6667C19.3129 12.0534 19.5072 12.4244 19.8529 12.6979C20.1986 12.9714 20.6675 13.125 21.1565 13.125C21.6454 13.125 22.1143 12.9714 22.46 12.6979C22.8058 12.4244 23 12.0534 23 11.6667V7.29167C22.9971 5.35851 22.025 3.50519 20.297 2.13824C18.5689 0.771286 16.2261 0.00231563 13.7823 0H9.2177C6.77391 0.00231563 4.43105 0.771286 2.70303 2.13824C0.975015 3.50519 0.00292728 5.35851 0 7.29167L0 27.7083C0.00292728 29.6415 0.975015 31.4948 2.70303 32.8618C4.43105 34.2287 6.77391 34.9977 9.2177 35H13.7823C16.2261 34.9977 18.5689 34.2287 20.297 32.8618C22.025 31.4948 22.9971 29.6415 23 27.7083V23.3333C23 22.9466 22.8058 22.5756 22.46 22.3021C22.1143 22.0286 21.6454 21.875 21.1565 21.875Z" fill="#BBBBBB"/>
<path d="M38.348 14.4068L31.6601 7.71889C31.5256 7.57961 31.3647 7.46851 31.1868 7.39208C31.0088 7.31565 30.8175 7.27542 30.6238 7.27374C30.4302 7.27205 30.2382 7.30895 30.0589 7.38228C29.8797 7.4556 29.7169 7.56389 29.58 7.70082C29.443 7.83774 29.3347 8.00057 29.2614 8.17979C29.1881 8.35902 29.1512 8.55105 29.1529 8.74469C29.1546 8.93832 29.1948 9.12969 29.2712 9.30761C29.3477 9.48553 29.4588 9.64645 29.598 9.78098L35.8135 15.9979L13.7503 16.0416C13.3636 16.0416 12.9926 16.1952 12.7191 16.4687C12.4456 16.7422 12.292 17.1132 12.292 17.4999C12.292 17.8867 12.4456 18.2576 12.7191 18.5311C12.9926 18.8046 13.3636 18.9583 13.7503 18.9583L35.8995 18.9131L29.5951 25.2189C29.4558 25.3534 29.3447 25.5143 29.2683 25.6923C29.1919 25.8702 29.1516 26.0615 29.15 26.2552C29.1483 26.4488 29.1852 26.6409 29.2585 26.8201C29.3318 26.9993 29.4401 27.1621 29.577 27.2991C29.714 27.436 29.8768 27.5443 30.056 27.6176C30.2352 27.6909 30.4273 27.7278 30.6209 27.7261C30.8145 27.7245 31.0059 27.6842 31.1838 27.6078C31.3618 27.5314 31.5227 27.4203 31.6572 27.281L38.3451 20.5931C39.1657 19.773 39.627 18.6606 39.6275 17.5005C39.6281 16.3404 39.1678 15.2276 38.348 14.4068Z" fill="#BBBBBB"/>
</g>
<defs>
<clipPath id="clip0_2212_733">
<rect width="40" height="35" fill="white"/>
</clipPath>
</defs>
</svg>
