<svg width="50" height="50" viewBox="0 0 50 50" fill="none" xmlns="http://www.w3.org/2000/svg">
    <g clip-path="url(#clip0_2011_372)">
        <rect width="50" height="50" rx="14" fill="#454545" />
        <path
            d="M25 13.5223C28.738 13.5223 29.1813 13.5363 30.6572 13.604C32.1832 13.674 33.7547 14.0217 34.8665 15.1335C35.9888 16.2558 36.326 17.8122 36.396 19.3428C36.4637 20.8187 36.4777 21.262 36.4777 25C36.4777 28.738 36.4637 29.1813 36.396 30.6572C36.3272 32.175 35.9713 33.7617 34.8665 34.8665C33.7442 35.9888 32.189 36.326 30.6572 36.396C29.1813 36.4637 28.738 36.4777 25 36.4777C21.262 36.4777 20.8187 36.4637 19.3428 36.396C17.8367 36.3272 16.229 35.9632 15.1335 34.8665C14.017 33.75 13.674 32.1785 13.604 30.6572C13.5363 29.1813 13.5223 28.738 13.5223 25C13.5223 21.262 13.5363 20.8187 13.604 19.3428C13.6728 17.8308 14.0322 16.2348 15.1335 15.1335C16.2535 14.0135 17.8157 13.674 19.3428 13.604C20.8187 13.5363 21.262 13.5223 25 13.5223ZM25 11C21.1978 11 20.7207 11.0163 19.2273 11.084C17.0632 11.1832 14.9142 11.7852 13.3497 13.3497C11.7793 14.92 11.1832 17.0643 11.084 19.2273C11.0163 20.7207 11 21.1978 11 25C11 28.8022 11.0163 29.2793 11.084 30.7727C11.1832 32.9345 11.7875 35.0893 13.3497 36.6503C14.9188 38.2195 17.0667 38.8168 19.2273 38.916C20.7207 38.9837 21.1978 39 25 39C28.8022 39 29.2793 38.9837 30.7727 38.916C32.9357 38.8168 35.087 38.2137 36.6503 36.6503C38.2218 35.0788 38.8168 32.9357 38.916 30.7727C38.9837 29.2793 39 28.8022 39 25C39 21.1978 38.9837 20.7207 38.916 19.2273C38.8168 17.0632 38.2137 14.913 36.6503 13.3497C35.0835 11.7828 32.9298 11.182 30.7727 11.084C29.2793 11.0163 28.8022 11 25 11Z"
            fill="white" />
        <path
            d="M25 17.8115C21.0299 17.8115 17.811 21.0304 17.811 25.0005C17.811 28.9707 21.0299 32.1895 25 32.1895C28.9702 32.1895 32.189 28.9707 32.189 25.0005C32.189 21.0304 28.9702 17.8115 25 17.8115ZM25 29.6672C22.4229 29.6672 20.3334 27.5777 20.3334 25.0005C20.3334 22.4234 22.4229 20.3339 25 20.3339C27.5772 20.3339 29.6667 22.4234 29.6667 25.0005C29.6667 27.5777 27.5772 29.6672 25 29.6672Z"
            fill="white" />
        <path
            d="M32.4735 19.2067C33.4013 19.2067 34.1535 18.4545 34.1535 17.5267C34.1535 16.5988 33.4013 15.8467 32.4735 15.8467C31.5456 15.8467 30.7935 16.5988 30.7935 17.5267C30.7935 18.4545 31.5456 19.2067 32.4735 19.2067Z"
            fill="white" />
    </g>
    <defs>
        <clipPath id="clip0_2011_372">
            <rect width="50" height="50" rx="14" fill="white" />
        </clipPath>
    </defs>
</svg>
    