<svg width="161" height="67" viewBox="0 0 161 67" fill="none" xmlns="http://www.w3.org/2000/svg">
<rect x="9.84802" y="6.06616" width="108.102" height="52.7606" rx="3" fill="white" stroke="#515151" stroke-width="4"/>
<path d="M9.06376 9.44125L31.9712 9.44124C38.2387 13.5098 38.0248 15.7285 36.9378 19.6753L31.9712 33.156L22.7476 33.156L12.3378 33.156" stroke="#515151" stroke-width="4"/>
<path d="M10.686 33.156H30.5523L37.6473 42.3796V57.2793" stroke="#515151" stroke-width="4"/>
<path d="M81 33C81 46.3295 70.6293 57 58 57C45.3707 57 35 46.3295 35 33C35 19.6705 45.3707 9 58 9C70.6293 9 81 19.6705 81 33Z" fill="white" stroke="#6A70F7" stroke-width="4"/>
<path d="M68.7865 59.5021C83.859 37.2535 94.8248 25.7921 116.066 6.0247" stroke="#515151" stroke-width="4"/>
<path d="M64.9808 5.93805C88.3558 25.4052 99.7853 36.956 117.417 58.5887" stroke="#515151" stroke-width="4"/>
<path d="M119.112 21.5L118.997 60" stroke="#515151" stroke-width="4"/>
<path d="M119.95 21.5L146.911 21.5" stroke="#515151" stroke-width="4"/>
<path d="M119.95 43.2175L156 43" stroke="#515151" stroke-width="4"/>
<path d="M115 58.5L156 58.5" stroke="#515151" stroke-width="4"/>
<path d="M111 65C111 63.8954 111.895 63 113 63H133.347H154C155.105 63 156 63.8954 156 65C156 66.1046 155.105 67 154 67H113C111.895 67 111 66.1046 111 65Z" fill="#6A70F7"/>
<path d="M8 65C8 63.8954 8.89543 63 10 63H35.8095H62C63.1046 63 64 63.8954 64 65C64 66.1046 63.1046 67 62 67H10C8.89543 67 8 66.1046 8 65Z" fill="#6A70F7"/>
<path d="M121 46.9999C121.925 46.9658 152.172 48.4538 154 51.5L154 57.5001" stroke="#6A70F7" stroke-width="4"/>
<path d="M146.044 21.4822C157.34 21.3609 154.094 36.4616 154 45" stroke="#6A70F7" stroke-width="4"/>
</svg>
