<svg width="50" height="50" viewBox="0 0 50 50" fill="none" xmlns="http://www.w3.org/2000/svg">
    <rect width="50" height="50" rx="14" fill="#454545" />
    <path
        d="M33.1667 12.167H16.8333C15.2868 12.1688 13.8042 12.784 12.7106 13.8776C11.617 14.9711 11.0019 16.4538 11 18.0003V32.0003C11.0019 33.5469 11.617 35.0295 12.7106 36.1231C13.8042 37.2166 15.2868 37.8318 16.8333 37.8337H33.1667C34.7132 37.8318 36.1959 37.2166 37.2894 36.1231C38.383 35.0295 38.9981 33.5469 39 32.0003V18.0003C38.9981 16.4538 38.383 14.9711 37.2894 13.8776C36.1959 12.784 34.7132 12.1688 33.1667 12.167ZM16.8333 14.5003H33.1667C33.8652 14.5017 34.5474 14.7121 35.1254 15.1044C35.7035 15.4968 36.1508 16.0531 36.41 16.7018L27.4757 25.6373C26.8182 26.2922 25.928 26.6599 25 26.6599C24.072 26.6599 23.1818 26.2922 22.5243 25.6373L13.59 16.7018C13.8492 16.0531 14.2965 15.4968 14.8746 15.1044C15.4526 14.7121 16.1348 14.5017 16.8333 14.5003ZM33.1667 35.5003H16.8333C15.9051 35.5003 15.0148 35.1316 14.3585 34.4752C13.7021 33.8188 13.3333 32.9286 13.3333 32.0003V19.7503L20.8747 27.287C21.9697 28.3793 23.4533 28.9927 25 28.9927C26.5467 28.9927 28.0303 28.3793 29.1253 27.287L36.6667 19.7503V32.0003C36.6667 32.9286 36.2979 33.8188 35.6415 34.4752C34.9852 35.1316 34.0949 35.5003 33.1667 35.5003Z"
        fill="white" />
</svg>