<svg width="225" height="50" viewBox="0 0 225 50" fill="none" xmlns="http://www.w3.org/2000/svg">
<rect width="225" height="50" rx="14" fill="#454545"/>
<path d="M23.4125 21.4125C23.4125 20.9458 23.6458 20.7125 24.1125 20.7125C24.5792 20.7125 24.8125 20.9458 24.8125 21.4125V30.5875C24.8125 31.0542 24.5792 31.2875 24.1125 31.2875C23.6458 31.2875 23.4125 31.0542 23.4125 30.5875V21.4125ZM19.625 26.525C19.1583 26.525 18.925 26.2917 18.925 25.825C18.925 25.3583 19.1583 25.125 19.625 25.125H28.8C29.2667 25.125 29.5 25.3583 29.5 25.825C29.5 26.2917 29.2667 26.525 28.8 26.525H19.625ZM19.625 26.525C19.1583 26.525 18.925 26.2917 18.925 25.825C18.925 25.3583 19.1583 25.125 19.625 25.125H28.8C29.2667 25.125 29.5 25.3583 29.5 25.825C29.5 26.2917 29.2667 26.525 28.8 26.525H19.625ZM37.4287 33.9875C35.9954 33.9875 34.9037 33.6833 34.1537 33.075C33.412 32.4667 32.9787 31.5167 32.8537 30.225C32.837 29.9583 32.8954 29.7542 33.0287 29.6125C33.1704 29.4708 33.3704 29.4 33.6287 29.4C34.112 29.4 34.3787 29.6625 34.4287 30.1875C34.5204 31.0125 34.7912 31.5917 35.2412 31.925C35.6995 32.25 36.4287 32.4125 37.4287 32.4125H40.2787C41.4287 32.4125 42.2204 32.1958 42.6537 31.7625C43.0954 31.3208 43.3162 30.5333 43.3162 29.4C43.3162 28.2667 43.0954 27.4833 42.6537 27.05C42.2204 26.6083 41.4287 26.3875 40.2787 26.3875H38.0912C37.5662 26.3875 37.3037 26.125 37.3037 25.6C37.3037 25.075 37.5662 24.8125 38.0912 24.8125H40.8162C41.6162 24.8042 42.1662 24.5583 42.4662 24.075C42.7662 23.5917 42.9162 22.8917 42.9162 21.975C42.9162 20.9167 42.7162 20.1875 42.3162 19.7875C41.9162 19.3875 41.187 19.1875 40.1287 19.1875H37.7037C36.8037 19.1875 36.1412 19.3333 35.7162 19.625C35.2995 19.9167 35.0495 20.4333 34.9662 21.175C34.9079 21.6917 34.637 21.95 34.1537 21.95C33.8954 21.95 33.6954 21.8792 33.5537 21.7375C33.4204 21.5958 33.3662 21.3917 33.3912 21.125C33.5162 19.925 33.9287 19.0417 34.6287 18.475C35.337 17.9 36.362 17.6125 37.7037 17.6125H40.1287C41.6287 17.6125 42.7287 17.9667 43.4287 18.675C44.137 19.375 44.4912 20.475 44.4912 21.975C44.4912 23.6083 43.9454 24.7375 42.8537 25.3625C43.5537 25.7042 44.0662 26.2083 44.3912 26.875C44.7245 27.5333 44.8912 28.375 44.8912 29.4C44.8912 30.975 44.5204 32.1333 43.7787 32.875C43.037 33.6167 41.8704 33.9875 40.2787 33.9875H37.4287ZM50.6605 34C50.1355 34 49.8772 33.725 49.8855 33.175C49.9022 31.9583 49.9689 30.9042 50.0855 30.0125C50.2105 29.1208 50.4064 28.3375 50.673 27.6625C50.948 26.9875 51.3189 26.3792 51.7855 25.8375C52.2522 25.2958 52.8439 24.7792 53.5605 24.2875C54.1272 23.8708 54.5897 23.4292 54.948 22.9625C55.3064 22.4875 55.5772 21.9458 55.7605 21.3375C55.9439 20.7292 56.0522 20.0125 56.0855 19.1875H47.9605C47.4355 19.1875 47.173 18.925 47.173 18.4C47.173 17.875 47.4355 17.6125 47.9605 17.6125H56.8855C57.4105 17.6125 57.673 17.875 57.673 18.4C57.673 19.55 57.5647 20.5583 57.348 21.425C57.1397 22.2917 56.798 23.0583 56.323 23.725C55.8564 24.3917 55.2397 25.0042 54.473 25.5625C53.898 25.9625 53.4189 26.375 53.0355 26.8C52.6522 27.225 52.348 27.7167 52.123 28.275C51.898 28.8333 51.7355 29.5083 51.6355 30.3C51.5355 31.0833 51.4772 32.0417 51.4605 33.175C51.4522 33.725 51.1855 34 50.6605 34ZM65.0266 34C63.5932 34 62.5016 33.6958 61.7516 33.0875C61.0099 32.4792 60.5766 31.5292 60.4516 30.2375C60.4349 29.9708 60.4932 29.7667 60.6266 29.625C60.7682 29.4833 60.9682 29.4125 61.2266 29.4125C61.7099 29.4125 61.9766 29.6708 62.0266 30.1875C62.1182 31.0125 62.3891 31.5917 62.8391 31.925C63.2974 32.2583 64.0266 32.425 65.0266 32.425H67.6266C68.7766 32.425 69.5682 32.2042 70.0016 31.7625C70.4432 31.3125 70.6641 30.5208 70.6641 29.3875V27.6625C70.6641 26.5125 70.4432 25.7208 70.0016 25.2875C69.5682 24.8458 68.7766 24.625 67.6266 24.625H65.7766C64.3266 24.625 63.3099 24.8542 62.7266 25.3125C62.5516 25.4375 62.3849 25.5292 62.2266 25.5875C62.0766 25.6458 61.8932 25.6417 61.6766 25.575L61.5016 25.525C61.0599 25.4 60.8391 25.1083 60.8391 24.65V18.4C60.8391 17.875 61.1016 17.6125 61.6266 17.6125H71.3641C71.8891 17.6125 72.1516 17.875 72.1516 18.4C72.1516 18.925 71.8891 19.1875 71.3641 19.1875H62.4141V23.6625C63.2557 23.2542 64.3766 23.05 65.7766 23.05H67.6266C69.2099 23.05 70.3724 23.425 71.1141 24.175C71.8641 24.9167 72.2391 26.0792 72.2391 27.6625V29.3875C72.2391 30.9625 71.8641 32.125 71.1141 32.875C70.3724 33.625 69.2099 34 67.6266 34H65.0266ZM80.0801 33.9875C78.6467 33.9875 77.5551 33.6833 76.8051 33.075C76.0634 32.4667 75.6301 31.5167 75.5051 30.225C75.4884 29.9583 75.5467 29.7542 75.6801 29.6125C75.8217 29.4708 76.0217 29.4 76.2801 29.4C76.7634 29.4 77.0301 29.6625 77.0801 30.1875C77.1717 31.0125 77.4426 31.5917 77.8926 31.925C78.3509 32.25 79.0801 32.4125 80.0801 32.4125H82.9301C84.0801 32.4125 84.8717 32.1958 85.3051 31.7625C85.7467 31.3208 85.9676 30.5333 85.9676 29.4C85.9676 28.2667 85.7467 27.4833 85.3051 27.05C84.8717 26.6083 84.0801 26.3875 82.9301 26.3875H80.7426C80.2176 26.3875 79.9551 26.125 79.9551 25.6C79.9551 25.075 80.2176 24.8125 80.7426 24.8125H83.4676C84.2676 24.8042 84.8176 24.5583 85.1176 24.075C85.4176 23.5917 85.5676 22.8917 85.5676 21.975C85.5676 20.9167 85.3676 20.1875 84.9676 19.7875C84.5676 19.3875 83.8384 19.1875 82.7801 19.1875H80.3551C79.4551 19.1875 78.7926 19.3333 78.3676 19.625C77.9509 19.9167 77.7009 20.4333 77.6176 21.175C77.5592 21.6917 77.2884 21.95 76.8051 21.95C76.5467 21.95 76.3467 21.8792 76.2051 21.7375C76.0717 21.5958 76.0176 21.3917 76.0426 21.125C76.1676 19.925 76.5801 19.0417 77.2801 18.475C77.9884 17.9 79.0134 17.6125 80.3551 17.6125H82.7801C84.2801 17.6125 85.3801 17.9667 86.0801 18.675C86.7884 19.375 87.1426 20.475 87.1426 21.975C87.1426 23.6083 86.5967 24.7375 85.5051 25.3625C86.2051 25.7042 86.7176 26.2083 87.0426 26.875C87.3759 27.5333 87.5426 28.375 87.5426 29.4C87.5426 30.975 87.1717 32.1333 86.4301 32.875C85.6884 33.6167 84.5217 33.9875 82.9301 33.9875H80.0801ZM95.3877 33.9875C93.9544 33.9875 92.8627 33.6833 92.1127 33.075C91.371 32.4667 90.9377 31.5167 90.8127 30.225C90.796 29.9583 90.8544 29.7542 90.9877 29.6125C91.1294 29.4708 91.3294 29.4 91.5877 29.4C92.071 29.4 92.3377 29.6625 92.3877 30.1875C92.4794 31.0125 92.7502 31.5917 93.2002 31.925C93.6585 32.25 94.3877 32.4125 95.3877 32.4125H98.2377C99.3877 32.4125 100.179 32.1958 100.613 31.7625C101.054 31.3208 101.275 30.5333 101.275 29.4C101.275 28.2667 101.054 27.4833 100.613 27.05C100.179 26.6083 99.3877 26.3875 98.2377 26.3875H96.0502C95.5252 26.3875 95.2627 26.125 95.2627 25.6C95.2627 25.075 95.5252 24.8125 96.0502 24.8125H98.7752C99.5752 24.8042 100.125 24.5583 100.425 24.075C100.725 23.5917 100.875 22.8917 100.875 21.975C100.875 20.9167 100.675 20.1875 100.275 19.7875C99.8752 19.3875 99.146 19.1875 98.0877 19.1875H95.6627C94.7627 19.1875 94.1002 19.3333 93.6752 19.625C93.2585 19.9167 93.0085 20.4333 92.9252 21.175C92.8669 21.6917 92.596 21.95 92.1127 21.95C91.8544 21.95 91.6544 21.8792 91.5127 21.7375C91.3794 21.5958 91.3252 21.3917 91.3502 21.125C91.4752 19.925 91.8877 19.0417 92.5877 18.475C93.296 17.9 94.321 17.6125 95.6627 17.6125H98.0877C99.5877 17.6125 100.688 17.9667 101.388 18.675C102.096 19.375 102.45 20.475 102.45 21.975C102.45 23.6083 101.904 24.7375 100.813 25.3625C101.513 25.7042 102.025 26.2083 102.35 26.875C102.684 27.5333 102.85 28.375 102.85 29.4C102.85 30.975 102.479 32.1333 101.738 32.875C100.996 33.6167 99.8294 33.9875 98.2377 33.9875H95.3877ZM111.158 33.9875C109.574 33.9875 108.408 33.6167 107.658 32.875C106.916 32.1333 106.545 30.975 106.545 29.4V21.975C106.545 20.475 106.899 19.375 107.608 18.675C108.316 17.9667 109.416 17.6125 110.908 17.6125H114.008C115.358 17.6125 116.383 17.9 117.083 18.475C117.791 19.0417 118.204 19.925 118.32 21.125C118.354 21.3917 118.299 21.5958 118.158 21.7375C118.024 21.8792 117.829 21.95 117.57 21.95C117.087 21.95 116.812 21.6917 116.745 21.175C116.67 20.4333 116.424 19.9167 116.008 19.625C115.591 19.3333 114.924 19.1875 114.008 19.1875H110.908C109.858 19.1875 109.129 19.3917 108.72 19.8C108.32 20.2 108.12 20.925 108.12 21.975V24.525C108.712 23.5667 109.724 23.0875 111.158 23.0875H113.758C115.341 23.0875 116.504 23.4625 117.245 24.2125C117.995 24.9542 118.37 26.1167 118.37 27.7V29.375C118.37 30.9583 117.995 32.125 117.245 32.875C116.504 33.6167 115.341 33.9875 113.758 33.9875H111.158ZM111.158 32.4125H113.758C114.908 32.4125 115.699 32.1917 116.133 31.75C116.574 31.3 116.795 30.5083 116.795 29.375V27.7C116.795 26.55 116.574 25.7583 116.133 25.325C115.691 24.8833 114.899 24.6625 113.758 24.6625H111.158C110.008 24.6625 109.212 24.8833 108.77 25.325C108.337 25.7583 108.12 26.5417 108.12 27.675V29.4C108.12 30.5333 108.337 31.3208 108.77 31.7625C109.212 32.1958 110.008 32.4125 111.158 32.4125ZM127.41 34.025C125.568 34.025 124.218 33.5958 123.36 32.7375C122.502 31.8792 122.073 30.5292 122.073 28.6875V22.9625C122.073 21.1125 122.502 19.7625 123.36 18.9125C124.227 18.0542 125.577 17.6333 127.41 17.65H128.91C130.76 17.65 132.11 18.0792 132.96 18.9375C133.818 19.7875 134.248 21.1375 134.248 22.9875V28.6875C134.248 30.5292 133.818 31.8792 132.96 32.7375C132.11 33.5958 130.76 34.025 128.91 34.025H127.41ZM127.41 32.45H128.91C129.852 32.45 130.593 32.3292 131.135 32.0875C131.685 31.8458 132.077 31.4542 132.31 30.9125C132.552 30.3625 132.673 29.6208 132.673 28.6875V22.9875C132.673 22.0458 132.552 21.3042 132.31 20.7625C132.077 20.2125 131.685 19.8208 131.135 19.5875C130.593 19.3458 129.852 19.225 128.91 19.225H127.41C126.477 19.2167 125.735 19.3292 125.185 19.5625C124.643 19.7875 124.252 20.175 124.01 20.725C123.768 21.275 123.648 22.0208 123.648 22.9625V28.6875C123.648 29.6208 123.764 30.3625 123.998 30.9125C124.239 31.4542 124.635 31.8458 125.185 32.0875C125.735 32.3292 126.477 32.45 127.41 32.45ZM127.91 26.9C127.368 26.9 127.098 26.625 127.098 26.075V25.55C127.098 25.0167 127.368 24.75 127.91 24.75H128.423C128.948 24.75 129.21 25.0167 129.21 25.55V26.075C129.21 26.625 128.948 26.9 128.423 26.9H127.91ZM142.554 33.9875C140.971 33.9875 139.804 33.6167 139.054 32.875C138.313 32.1333 137.942 30.975 137.942 29.4V21.975C137.942 20.475 138.296 19.375 139.004 18.675C139.713 17.9667 140.813 17.6125 142.304 17.6125H145.404C146.754 17.6125 147.779 17.9 148.479 18.475C149.188 19.0417 149.6 19.925 149.717 21.125C149.75 21.3917 149.696 21.5958 149.554 21.7375C149.421 21.8792 149.225 21.95 148.967 21.95C148.483 21.95 148.208 21.6917 148.142 21.175C148.067 20.4333 147.821 19.9167 147.404 19.625C146.988 19.3333 146.321 19.1875 145.404 19.1875H142.304C141.254 19.1875 140.525 19.3917 140.117 19.8C139.717 20.2 139.517 20.925 139.517 21.975V24.525C140.108 23.5667 141.121 23.0875 142.554 23.0875H145.154C146.738 23.0875 147.9 23.4625 148.642 24.2125C149.392 24.9542 149.767 26.1167 149.767 27.7V29.375C149.767 30.9583 149.392 32.125 148.642 32.875C147.9 33.6167 146.738 33.9875 145.154 33.9875H142.554ZM142.554 32.4125H145.154C146.304 32.4125 147.096 32.1917 147.529 31.75C147.971 31.3 148.192 30.5083 148.192 29.375V27.7C148.192 26.55 147.971 25.7583 147.529 25.325C147.088 24.8833 146.296 24.6625 145.154 24.6625H142.554C141.404 24.6625 140.608 24.8833 140.167 25.325C139.733 25.7583 139.517 26.5417 139.517 27.675V29.4C139.517 30.5333 139.733 31.3208 140.167 31.7625C140.608 32.1958 141.404 32.4125 142.554 32.4125ZM157.482 34C156.957 34 156.694 33.7375 156.694 33.2125V19.65L157.282 19.4625L154.557 22.0875C154.39 22.2458 154.215 22.3375 154.032 22.3625C153.857 22.3792 153.682 22.3 153.507 22.125C153.173 21.775 153.186 21.4125 153.544 21.0375L156.632 18.0125C156.89 17.7458 157.215 17.6125 157.607 17.6125C158.048 17.6125 158.269 17.875 158.269 18.4V33.2125C158.269 33.7375 158.007 34 157.482 34ZM166.774 33.9875C165.341 33.9875 164.249 33.6833 163.499 33.075C162.758 32.4667 162.324 31.5167 162.199 30.225C162.183 29.9583 162.241 29.7542 162.374 29.6125C162.516 29.4708 162.716 29.4 162.974 29.4C163.458 29.4 163.724 29.6625 163.774 30.1875C163.866 31.0125 164.137 31.5917 164.587 31.925C165.045 32.25 165.774 32.4125 166.774 32.4125H169.624C170.774 32.4125 171.566 32.1958 171.999 31.7625C172.441 31.3208 172.662 30.5333 172.662 29.4C172.662 28.2667 172.441 27.4833 171.999 27.05C171.566 26.6083 170.774 26.3875 169.624 26.3875H167.437C166.912 26.3875 166.649 26.125 166.649 25.6C166.649 25.075 166.912 24.8125 167.437 24.8125H170.162C170.962 24.8042 171.512 24.5583 171.812 24.075C172.112 23.5917 172.262 22.8917 172.262 21.975C172.262 20.9167 172.062 20.1875 171.662 19.7875C171.262 19.3875 170.533 19.1875 169.474 19.1875H167.049C166.149 19.1875 165.487 19.3333 165.062 19.625C164.645 19.9167 164.395 20.4333 164.312 21.175C164.254 21.6917 163.983 21.95 163.499 21.95C163.241 21.95 163.041 21.8792 162.899 21.7375C162.766 21.5958 162.712 21.3917 162.737 21.125C162.862 19.925 163.274 19.0417 163.974 18.475C164.683 17.9 165.708 17.6125 167.049 17.6125H169.474C170.974 17.6125 172.074 17.9667 172.774 18.675C173.483 19.375 173.837 20.475 173.837 21.975C173.837 23.6083 173.291 24.7375 172.199 25.3625C172.899 25.7042 173.412 26.2083 173.737 26.875C174.07 27.5333 174.237 28.375 174.237 29.4C174.237 30.975 173.866 32.1333 173.124 32.875C172.383 33.6167 171.216 33.9875 169.624 33.9875H166.774ZM187.895 25.5C189.303 26.1833 190.007 27.4875 190.007 29.4125C190.007 30.9875 189.636 32.1458 188.895 32.8875C188.153 33.6292 186.986 34 185.395 34H182.545C180.961 34 179.795 33.6292 179.045 32.8875C178.303 32.1458 177.932 30.9875 177.932 29.4125C177.932 27.4458 178.661 26.1292 180.12 25.4625C179.011 24.7292 178.457 23.5542 178.457 21.9375C178.457 20.4542 178.811 19.3625 179.52 18.6625C180.228 17.9625 181.328 17.6125 182.82 17.6125H185.245C186.745 17.6125 187.845 17.9625 188.545 18.6625C189.253 19.3625 189.607 20.4542 189.607 21.9375C189.607 23.6125 189.036 24.8 187.895 25.5ZM182.82 19.1875C181.77 19.1875 181.04 19.3875 180.632 19.7875C180.232 20.1875 180.032 20.9042 180.032 21.9375C180.032 23.0292 180.228 23.7833 180.62 24.2C181.02 24.6167 181.69 24.825 182.632 24.825H185.507C186.182 24.825 186.703 24.7167 187.07 24.5C187.436 24.2833 187.686 23.9625 187.82 23.5375C187.961 23.1042 188.032 22.5708 188.032 21.9375C188.032 20.9042 187.832 20.1875 187.432 19.7875C187.032 19.3875 186.303 19.1875 185.245 19.1875H182.82ZM185.395 32.425C186.545 32.425 187.336 32.2083 187.77 31.775C188.211 31.3333 188.432 30.5458 188.432 29.4125C188.432 28.2708 188.211 27.4833 187.77 27.05C187.336 26.6167 186.545 26.4 185.395 26.4H182.545C181.395 26.4 180.599 26.6167 180.157 27.05C179.724 27.4833 179.507 28.2708 179.507 29.4125C179.507 30.5458 179.724 31.3333 180.157 31.775C180.599 32.2083 181.395 32.425 182.545 32.425H185.395ZM203.779 34H194.204C193.662 34 193.391 33.7375 193.391 33.2125C193.391 32.2042 193.537 31.3417 193.829 30.625C194.12 29.9 194.524 29.2708 195.041 28.7375C195.558 28.2042 196.158 27.7208 196.841 27.2875C197.524 26.8458 198.254 26.4042 199.029 25.9625C199.887 25.4708 200.608 25.0375 201.191 24.6625C201.783 24.2875 202.224 23.8958 202.516 23.4875C202.816 23.0708 202.966 22.5667 202.966 21.975C202.966 20.9167 202.766 20.1875 202.366 19.7875C201.966 19.3875 201.237 19.1875 200.179 19.1875H197.504C196.604 19.1875 195.941 19.3333 195.516 19.625C195.099 19.9167 194.849 20.4333 194.766 21.175C194.733 21.425 194.654 21.6167 194.529 21.75C194.404 21.8833 194.212 21.95 193.954 21.95C193.695 21.95 193.495 21.8792 193.354 21.7375C193.22 21.5958 193.162 21.3917 193.179 21.125C193.304 19.925 193.716 19.0417 194.416 18.475C195.124 17.9 196.154 17.6125 197.504 17.6125H200.179C201.679 17.6125 202.779 17.9667 203.479 18.675C204.187 19.375 204.541 20.475 204.541 21.975C204.541 22.8833 204.324 23.6458 203.891 24.2625C203.458 24.8708 202.883 25.4125 202.166 25.8875C201.449 26.3625 200.662 26.8417 199.804 27.325C198.879 27.8583 198.074 28.35 197.391 28.8C196.716 29.25 196.174 29.7542 195.766 30.3125C195.366 30.8708 195.116 31.575 195.016 32.425H203.779C204.304 32.425 204.566 32.6875 204.566 33.2125C204.566 33.7375 204.304 34 203.779 34Z" fill="white"/>
</svg>
