<svg width="1727" height="1008" viewBox="0 0 1727 1008" fill="none"
    xmlns="http://www.w3.org/2000/svg">
    <g opacity="0.4">
        <path
            d="M263.891 437.244C262.236 452.178 262.997 467.473 267.106 481.741C271.178 495.933 278.713 509.154 289.444 518.057C292.107 520.283 294.904 522.261 297.834 523.954C300.783 525.609 303.866 526.941 306.986 527.987C313.246 530.118 319.772 530.86 326.203 530.556C339.103 529.852 351.527 524.982 362.829 517.962C363.514 517.524 364.294 517.068 364.884 516.649L366.52 515.432C367.586 514.557 368.632 513.72 369.679 512.749C371.753 510.904 373.731 508.812 375.615 506.51C379.382 501.963 382.94 496.732 386.118 491.043C392.587 479.705 398.085 466.845 403.242 453.586C413.516 426.914 422.554 398.455 432.695 369.691C435.225 362.481 437.87 355.252 440.61 348.004C443.293 340.737 446.204 333.47 449.229 326.165C455.336 311.555 461.958 296.925 470.957 282.106C473.24 278.396 475.695 274.668 478.511 270.92C479.919 269.056 481.479 267.153 483.096 265.308C484.733 263.501 486.426 261.789 488.195 260.153C495.216 253.608 502.998 248.586 510.78 244.648C526.344 236.677 541.869 232.397 556.824 227.945C571.817 223.684 586.449 219.575 600.509 214.305C614.551 209.074 627.984 202.701 640.142 194.692C652.338 186.74 663.069 176.924 671.745 165.662C680.402 154.343 687.233 141.73 690.296 129.003C691.818 122.668 692.484 116.371 692.141 110.455C691.742 104.539 690.372 99.0408 688.051 94.3229C683.484 84.811 675.607 78.4761 666.246 75.4324C661.585 73.8534 656.505 73.1305 651.272 73.0544C646.04 73.0544 640.598 73.7012 635.138 75.0329C633.768 75.3753 632.417 75.7558 631.047 76.1743L626.176 77.6391C622.942 78.6664 619.745 79.7317 616.587 80.9112C610.27 83.2511 604.067 85.8573 597.922 88.8251C585.612 94.7224 573.32 102.161 559.678 110.075C546.112 118.007 531.005 126.035 514.947 132.484C498.85 138.819 482.05 143.67 465.325 146.733C463.232 147.171 461.14 147.456 459.047 147.818L453.415 148.731C450.313 149.244 447.155 149.872 444.016 150.538C437.718 151.927 431.458 153.639 425.351 155.655C400.825 163.74 378.735 176.524 361.916 194.578C353.43 203.538 345.972 213.678 339.636 225.054C336.439 230.723 333.509 236.677 330.96 242.936C328.315 249.157 326.07 255.682 324.015 262.378C322.017 269.094 320.267 276.018 318.84 283.095C318.136 286.424 317.413 290.781 316.671 294.7C315.852 298.695 315.034 302.69 314.064 306.628C310.259 322.436 305.407 337.769 299.566 352.532C293.858 367.313 287.198 381.505 280.52 395.43C277.171 402.393 273.823 409.299 270.759 416.261C267.734 423.186 264.861 430.282 263.929 437.263L263.891 437.244ZM257.993 436.617C258.43 432.45 259.477 428.57 260.637 424.803C261.76 421.017 263.13 417.365 264.443 413.731C267.106 406.464 269.884 399.311 272.339 392.082C274.831 384.872 277.057 377.605 278.979 370.281C280.882 362.957 282.347 355.557 283.545 348.156C285.828 333.337 286.628 318.441 285.943 303.736C285.809 300.064 285.524 296.393 285.258 292.759C284.915 289.031 284.516 285.74 284.192 281.402C283.507 273.165 283.203 264.813 283.45 256.348C283.888 239.455 286.437 222.105 291.917 205.136C297.359 188.205 305.787 171.692 316.975 157.139C328.163 142.567 341.824 129.897 356.779 119.586C371.753 109.257 388.001 101.248 404.783 95.4072C413.173 92.4586 421.716 90.0806 430.412 88.2163C434.75 87.2651 439.145 86.4851 443.616 85.8193L454.442 84.2403C467.913 82.0907 480.927 79.199 493.618 74.8997C506.385 70.7906 518.828 65.1786 532.318 58.6725C545.751 52.2044 560.306 44.7281 576.212 38.5454C584.127 35.4635 592.309 32.648 600.623 30.3842C604.771 29.2428 608.957 28.2345 613.143 27.3024L619.441 26.0087C621.819 25.5902 624.197 25.1907 626.633 24.9054C636.279 23.6878 646.325 23.6118 656.333 25.2097C666.341 26.7507 676.311 29.9657 685.501 34.9879C694.672 40.0292 702.968 46.9348 709.456 55.2482C715.982 63.5235 720.624 73.1305 723.041 83.0038C725.514 92.8581 725.818 102.865 724.601 112.243C723.421 121.641 720.738 130.468 717.18 138.591C709.874 154.799 699.657 168.306 688.26 180.12C682.571 186.093 676.368 191.515 669.994 196.594C663.544 201.598 656.847 206.182 649.94 210.349C622.295 227.051 592.004 236.601 564.226 248.7C550.393 254.674 537.037 261.427 526.572 269.779C521.378 273.983 517.002 278.549 513.71 283.381C512.892 284.579 512.131 285.816 511.427 287.052C510.742 288.27 510.095 289.506 509.429 290.876C508.116 293.577 506.879 296.583 505.7 299.703C503.34 305.981 501.267 312.81 499.345 319.773C497.328 326.736 495.559 333.908 493.675 341.137L488.119 363.071C486.255 370.452 484.352 377.871 482.297 385.291C474.078 414.987 464.526 445.139 449.876 474.55C442.455 489.217 433.779 503.751 422.287 517.315C419.376 520.682 416.332 523.992 413.021 527.169C409.749 530.365 406.248 533.447 402.423 536.301C398.656 539.173 394.585 541.837 390.227 544.158C388.096 545.356 385.794 546.383 383.511 547.373L380.01 548.742C378.888 549.161 377.898 549.446 376.833 549.808C368.461 552.471 359.766 554.43 350.861 555.267C341.957 556.104 332.862 555.8 324.015 554.069C315.167 552.395 306.663 549.104 299.071 544.614C295.285 542.35 291.727 539.782 288.473 536.929C285.201 534.113 282.194 531.05 279.512 527.778C268.743 514.652 262.711 499.129 259.629 483.605C256.566 468.006 256.413 452.197 257.974 436.693L257.993 436.617Z"
            fill="#EBEBEB" />
        <path
            d="M1048.18 917.294C1030.79 919.767 1013.94 925.284 997.763 932.227C981.533 939.133 965.931 947.466 950.177 955.969C942.262 960.154 934.366 964.492 926.185 968.563C918.022 972.691 909.593 976.61 900.613 979.939C891.613 983.23 882.024 985.989 871.407 987.111C860.866 988.214 849.013 987.491 837.445 983.268C834.572 982.241 831.813 980.852 828.978 979.578C826.295 978.094 823.631 976.496 821.006 974.86C818.551 973.071 816.097 971.207 813.718 969.286C811.53 967.269 809.342 965.215 807.154 963.122C799.22 955.056 792.466 945.525 787.138 935.404C781.773 925.265 778.063 914.535 775.475 903.977C772.925 893.381 771.517 882.918 770.794 872.759C769.386 852.423 770.509 833.209 771.86 814.946L774.029 788.104C774.39 783.709 774.619 779.391 774.904 775.092L775.285 768.7L775.532 762.384C775.722 753.994 775.817 745.795 775.17 737.805C774.695 729.815 773.515 721.977 771.803 714.767C769.995 707.31 767.122 699.51 763.659 691.692C760.216 683.854 756.239 675.94 751.977 668.026C743.415 652.122 733.712 636.276 724.236 619.877L717.196 607.474C714.913 603.25 712.668 599.027 710.518 594.671C706.123 586.034 702.223 576.998 699.102 567.467C696.058 557.936 693.908 547.739 694.003 537.257C694.041 526.794 696.534 516.236 701.1 507.067C703.326 502.425 706.161 498.259 709.11 494.245L713.81 488.537C715.408 486.73 717.082 485.094 718.719 483.363C725.435 476.686 732.684 470.503 740.58 465.119C748.533 459.869 756.943 455.208 765.828 451.555C768.055 450.699 770.243 449.672 772.526 448.911L779.356 446.59C783.98 445.297 788.622 443.965 793.341 443.014C812.196 439 831.718 438.125 850.953 439.818C860.581 440.617 870.17 441.929 879.626 443.832C889.14 445.601 898.463 448.074 907.729 450.756C912.314 452.221 916.976 453.553 921.485 455.189L928.316 457.567L935.07 460.135C944.051 463.635 952.879 467.459 961.574 471.568C965.893 473.661 970.193 475.811 974.493 477.96C978.717 480.205 982.979 482.469 987.165 484.809C991.313 487.206 995.537 489.508 999.627 492C1003.7 494.53 1007.85 496.965 1011.84 499.571L1034.94 514.505C1038.69 516.94 1042.49 519.223 1046.26 521.582L1051.93 525.101L1057.66 528.506C1088.12 546.864 1119.42 562.635 1151.65 577.055C1167.88 584.246 1184.24 591.151 1201.58 598.97C1210.23 602.832 1219.1 607.207 1228.27 612.344C1237.36 617.556 1246.84 623.625 1255.8 631.272C1264.78 638.863 1273.1 647.937 1279.87 657.658C1286.78 667.341 1291.97 677.538 1296.29 687.506C1298.57 692.529 1300.3 697.475 1302.13 702.44C1302.99 704.913 1303.73 707.367 1304.55 709.84C1305.33 712.294 1306.15 714.729 1306.81 717.374L1308.87 725.173L1309.86 729.073L1310.62 733.106C1311.61 738.509 1312.65 743.817 1313.03 749.448C1313.3 752.225 1313.55 754.984 1313.74 757.761L1313.78 766.265L1313.74 770.507C1313.7 771.915 1313.51 773.36 1313.39 774.787L1312.54 783.329C1312.1 786.163 1311.45 788.998 1310.88 791.813L1309.99 796.018C1309.65 797.406 1309.17 798.776 1308.75 800.165C1307.9 802.904 1307.04 805.663 1306.13 808.345C1305.02 810.989 1303.86 813.596 1302.7 816.183C1297.76 826.38 1291.69 835.891 1284.32 843.691L1281.64 846.697C1280.71 847.648 1279.74 848.542 1278.79 849.455C1276.86 851.263 1274.98 853.108 1273.02 854.82C1268.95 857.997 1265.03 861.364 1260.79 864.046C1252.51 869.868 1243.74 874.262 1235.04 878.409C1226.23 882.252 1217.42 885.753 1208.48 888.492C1190.65 894.161 1172.77 898.213 1154.92 901.523C1150.45 902.303 1146.02 903.216 1141.53 903.882C1137.06 904.605 1132.64 905.461 1128.17 906.108C1123.72 906.831 1119.27 907.459 1114.81 908.124L1101.48 910.065L1048.24 917.332L1048.18 917.294ZM1047.19 911.473C1064.83 908.904 1082.34 905.708 1099.59 901.58L1106.06 900.02L1112.49 898.308C1116.79 897.224 1121.02 895.911 1125.24 894.637C1133.73 892.164 1142.06 889.253 1150.28 886.19C1166.72 880.026 1182.59 872.588 1197.22 863.818C1204.6 859.538 1211.47 854.668 1218.07 849.703C1224.46 844.528 1230.67 839.259 1235.84 833.418C1238.64 830.66 1240.83 827.521 1243.26 824.629L1246.42 820.045C1246.93 819.284 1247.49 818.542 1247.98 817.781L1249.31 815.403C1253.06 809.22 1255.55 802.733 1257.36 796.246C1257.74 794.591 1258.12 792.955 1258.58 791.357L1259.32 786.373C1259.44 785.536 1259.61 784.737 1259.68 783.9L1259.78 781.35C1259.83 779.657 1260.01 778.002 1260.01 776.29L1259.83 771.116C1259.8 770.26 1259.83 769.423 1259.74 768.547L1259.42 765.903L1258.85 760.653L1257.8 755.288C1256.51 748.154 1254.26 740.83 1251.75 733.487C1251.22 731.68 1250.44 729.758 1249.69 727.856C1248.95 725.972 1248.25 724.032 1247.47 722.187C1245.85 718.591 1244.35 714.863 1242.62 711.533C1239.25 704.704 1235.61 698.483 1231.54 693.252C1227.47 687.982 1223.09 683.454 1217.92 679.269C1207.66 670.937 1193.57 663.651 1177.68 656.155C1169.78 652.389 1161.58 648.66 1153.21 644.798C1144.86 640.993 1136.45 636.827 1128.02 632.718C1094.23 616.034 1061.2 596.611 1029.99 575.229L1024.11 571.253L1018.31 567.162C1014.47 564.423 1010.57 561.741 1006.76 558.944L984.558 542.546C977.461 537.352 970.288 532.33 963.077 527.365L952.156 520.136C948.484 517.796 944.812 515.437 941.101 513.154C933.662 508.703 926.223 504.175 918.574 500.142L912.866 497.041L907.101 494.111C903.277 492.076 899.357 490.364 895.476 488.499C879.855 481.461 863.796 475.43 847.395 471.606C839.195 469.609 830.918 468.41 822.623 467.573C814.308 466.698 806.032 466.793 797.812 467.497C781.354 468.81 765.448 473.832 751.178 482.012C744.1 486.217 737.441 491.182 731.371 496.889C729.887 498.335 728.308 499.761 726.919 501.245L722.962 505.735C720.602 508.893 718.319 512.108 716.626 515.57C713.087 522.438 711.298 530.009 711.431 537.866C711.527 545.723 713.448 553.808 716.492 561.684C719.518 569.598 723.723 577.264 728.289 584.835C732.97 592.331 738.107 599.712 743.605 606.96C754.527 621.475 766.475 635.648 778.177 650.734C783.999 658.324 789.745 666.181 795.186 674.589C800.609 682.998 805.784 691.958 810.065 701.964C818.703 722.434 822.033 743.113 823.46 763.012C826.048 802.733 820.987 839.278 821.71 872.036C822.052 888.378 823.841 903.464 828.597 916.818C830.937 923.534 834.191 929.811 838.206 935.842C841.973 941.378 846.083 945.867 851.22 949.102C856.319 952.374 862.674 954.637 870.018 955.532C877.343 956.464 885.43 956.121 893.668 955.018C901.926 953.915 910.354 952.088 918.802 949.939C927.212 947.637 935.698 945.107 944.108 942.291C961.003 936.774 977.785 930.477 994.833 924.884C1011.86 919.234 1029.21 914.25 1047.17 911.549L1047.19 911.473Z"
            fill="#EBEBEB" />
        <path
            d="M1009.57 45.334C1015.63 43.774 1021.33 42.8419 1026.89 42.1951C1029.67 41.8336 1032.37 41.6243 1035.09 41.377C1037.75 41.2248 1040.47 41.0727 1043.1 41.0156C1048.41 40.8063 1053.56 40.9585 1058.7 41.1107C1079.16 41.9287 1098.7 45.0486 1117.95 48.0353L1124.78 49.0626L1127.81 49.5192L1130.91 49.7475C1132.98 49.9567 1135.13 49.8806 1137.26 49.9377C1139.43 49.8426 1141.6 49.7665 1143.83 49.5953C1146.03 49.405 1148.24 49.1958 1150.5 48.8343C1152.73 48.5109 1155 48.1495 1157.26 47.7119C1161.75 46.7988 1166.35 45.8096 1170.9 44.554C1189.24 39.7029 1207.38 32.531 1227.62 27.9082C1237.8 25.7776 1248.7 24.1986 1260.31 25.4352C1266.11 25.8917 1271.91 27.3946 1277.62 29.2399C1280.42 30.2862 1283.27 31.3325 1285.94 32.6832C1287.29 33.349 1288.68 33.9768 1289.99 34.6807L1293.85 36.9445C1298.99 40.0264 1303.63 43.6599 1308.03 47.4836C1310.27 49.4241 1312.4 51.783 1314.59 53.9898C1316.72 56.2726 1318.47 58.7267 1320.43 61.1617C1322.32 63.5967 1323.82 66.1459 1325.49 68.7331C1326.35 70.0077 1327.01 71.3204 1327.7 72.633L1329.79 76.5899L1330.82 78.5874L1331.68 80.6039L1333.37 84.675C1334.59 87.3764 1335.42 90.1158 1336.32 92.8742C1339.82 103.889 1341.68 115.056 1342.29 126.109C1342.81 137.142 1342.18 148.081 1340.5 158.772C1338.81 169.445 1335.88 179.813 1332.09 189.8C1331.12 192.292 1330.1 194.765 1329.07 197.2C1327.98 199.635 1326.77 202.032 1325.61 204.429C1324.47 206.826 1323.19 209.185 1321.88 211.487C1320.56 213.808 1319.29 216.11 1317.82 218.374C1312.27 227.41 1305.76 235.876 1298.89 243.808C1291.97 251.703 1284.59 259.084 1276.63 265.648C1268.74 272.23 1260.46 278.165 1251.67 283.054C1242.86 287.924 1233.5 291.672 1223.7 293.803C1213.81 295.914 1203.3 295.667 1193.3 293.099C1183.29 290.569 1173.79 286.136 1164.81 281C1146.89 270.556 1130.41 257.601 1115.27 243.961C1107.68 237.112 1100.54 229.978 1093.75 222.654C1092.8 221.551 1092.26 221.246 1091.64 220.695L1089.87 219.154C1088.5 218.241 1087.45 217.156 1086.02 216.3L1084.08 214.93C1083.36 214.512 1082.64 214.112 1081.97 213.637C1080.66 212.724 1079.02 211.963 1077.65 211.088C1071.58 207.739 1064.68 204.467 1056.74 201.309L1044.22 196.382L1037.52 193.757L1030.52 190.865C1025.79 188.944 1020.8 186.566 1015.74 184.055C1010.64 181.354 1005.37 178.405 1000.06 174.695C994.734 170.89 989.369 166.705 984.384 161.303C979.437 155.995 974.813 149.888 971.312 143.116L969.942 140.605L968.782 138.018C968.04 136.286 967.241 134.555 966.575 132.805C965.433 129.324 964.158 125.747 963.492 122.266L962.389 117.015L961.723 111.917C961.228 108.455 961.19 105.221 961.076 101.91C961.038 101.035 961.019 100.37 961 99.3613C961 98.0297 961.076 96.698 961.171 95.3854C961.266 92.7981 961.761 89.9446 962.37 87.1861C962.522 86.5203 962.674 85.8164 962.865 85.1316L963.531 83.039C963.987 81.6502 964.501 80.2996 965.015 78.9298C966.194 76.3046 967.564 73.6793 969.067 71.3204C969.847 70.1789 970.646 69.0375 971.484 67.9341C971.902 67.3634 972.321 66.8117 972.739 66.3171L974.052 64.8713C974.927 63.9201 975.822 63.007 976.735 62.0939C977.629 61.1807 978.523 60.4959 979.437 59.6969C980.331 58.9549 981.282 58.194 982.196 57.4901L984.878 55.6639C985.773 55.0931 986.724 54.4273 987.58 53.9517L990.187 52.5059C997.17 48.8534 1003.56 46.8178 1009.61 45.2388L1009.57 45.334Z"
            fill="#EBEBEB" />
        <path
            d="M558.288 711.179C559.449 717.875 559.81 724.229 559.639 730.354C559.468 742.644 556.69 753.906 553.664 764.863C550.582 775.859 546.834 786.531 542.172 796.823C537.416 807.077 531.613 816.912 524.382 825.93C517.133 834.928 508.8 843.355 498.868 850.584C488.879 857.68 476.474 862.874 462.869 864.909C456.096 865.898 449.018 866.108 442.131 865.328C435.262 864.51 428.622 862.76 422.819 860.115C416.977 857.528 411.992 854.218 407.673 850.718C403.335 847.198 399.587 843.469 395.953 839.722C394.05 837.648 392.338 835.403 390.835 832.987C389.408 830.533 388.247 827.946 387.22 825.226C385.336 819.823 384.137 814.059 383.357 808.199C381.797 796.462 381.474 783.906 382.958 771.864C384.442 759.841 388.171 748.636 394.012 739.067C399.853 729.498 407.521 721.375 416.559 714.888C425.558 708.325 436.118 703.626 446.469 699.365C456.971 695.199 467.131 691.28 476.797 686.714C486.634 682.301 495.805 677.088 507.563 673.416C510.531 672.522 513.671 671.704 517.19 671.343C520.672 670.905 524.497 670.81 528.663 671.514C533.135 672.275 538.5 674.767 542.439 678.229C543.39 679.086 544.417 680.018 545.236 680.95C546.054 681.882 546.872 682.833 547.652 683.822C549.003 685.706 550.354 687.741 551.305 689.625C552.409 691.622 553.151 693.391 553.969 695.332C554.635 697.101 555.396 699.06 555.852 700.754L556.633 703.436L557.279 706.023C557.698 707.773 557.983 709.409 558.307 711.121L558.288 711.179Z"
            fill="#EBEBEB" />
    </g>
    <path
        d="M675.619 412.647C675.619 425.754 665.06 435.894 651.95 435.894H647.726V468.006C647.726 481.113 637.585 491.253 624.476 491.253C611.367 491.253 601.225 481.113 601.225 468.006V435.894H468.096C463.016 435.894 457.955 434.619 453.731 430.814C443.171 422.786 441.897 408.424 449.926 398.284L606.305 203.9C606.724 203.9 606.724 203.481 607.143 203.063C607.561 202.644 607.98 202.226 608.417 201.37C609.673 200.951 610.111 200.532 610.529 200.095C610.948 199.676 611.804 199.258 612.223 198.82C613.06 198.402 613.498 197.983 614.753 197.983C615.172 197.146 615.59 196.709 616.447 196.709C616.865 196.29 617.721 196.29 618.977 195.872C619.396 195.872 620.233 195.872 620.671 195.453H627.863C628.7 195.872 629.137 195.872 629.975 195.872C630.393 196.29 631.668 196.29 632.505 196.709C632.924 196.709 633.78 197.127 634.198 197.127C635.036 197.964 635.892 198.402 636.31 198.82C637.148 199.239 637.585 199.657 638.422 200.095C638.422 200.095 638.841 200.095 638.841 200.513C639.26 200.513 640.116 200.932 640.116 201.35C640.953 202.188 641.372 202.625 641.809 203.044C642.228 203.462 642.646 204.318 643.084 204.737C643.502 205.155 643.921 205.574 644.777 206.848C644.777 207.267 645.196 208.123 645.614 208.541C646.033 209.378 646.033 209.816 646.452 211.072C646.452 211.49 646.87 212.346 646.87 212.765C647.289 213.602 647.289 214.039 647.289 215.295C647.289 216.132 647.707 216.569 647.707 217.406V389.4H651.931C665.041 389.4 675.6 399.958 675.6 412.647H675.619ZM601.244 285.036L517.147 389.419H601.244V285.036Z"
        fill="#455A64" />
    <path
        d="M1213.81 412.647C1213.81 425.754 1203.25 435.894 1190.14 435.894H1185.91V468.006C1185.91 481.113 1175.77 491.253 1162.68 491.253C1149.59 491.253 1139.43 481.113 1139.43 468.006V435.894H1006.3C1001.22 435.894 996.16 434.619 991.936 430.814C981.377 422.786 980.102 408.424 988.131 398.284L1144.49 203.9C1144.91 203.9 1144.91 203.481 1145.33 203.063C1145.75 202.644 1146.17 202.226 1146.6 201.37C1147.88 200.951 1148.3 200.532 1148.72 200.095C1149.13 199.676 1149.99 199.258 1150.41 198.82C1151.25 198.402 1151.68 197.983 1152.94 197.983C1153.36 197.146 1153.78 196.709 1154.63 196.709C1155.05 196.29 1155.91 196.29 1157.16 195.872C1157.58 195.872 1158.44 195.872 1158.86 195.453H1166.03C1166.87 195.872 1167.3 195.872 1168.14 195.872C1168.56 196.29 1169.83 196.29 1170.67 196.709C1171.09 196.709 1171.95 197.127 1172.37 197.127C1173.2 197.964 1174.04 198.402 1174.48 198.82C1175.31 199.239 1175.75 199.657 1176.59 200.095C1176.59 200.095 1177.01 200.095 1177.01 200.513C1177.43 200.513 1178.28 200.932 1178.28 201.35C1179.12 202.188 1179.56 202.625 1179.98 203.044C1180.39 203.462 1180.81 204.318 1181.25 204.737C1181.67 205.155 1182.09 205.574 1182.94 206.848C1182.94 207.267 1183.36 208.123 1183.78 208.541C1184.2 209.378 1184.2 209.816 1184.62 211.072C1184.62 211.49 1185.04 212.346 1185.04 212.765C1185.46 213.602 1185.46 214.039 1185.46 215.295C1185.46 216.132 1185.87 216.569 1185.87 217.406V389.4H1190.1C1203.21 389.4 1213.77 399.958 1213.77 412.647H1213.81ZM1139.43 285.036L1055.31 389.419H1139.43V285.036Z"
        fill="#455A64" />
    <path
        d="M695.807 333.965L700.107 309.881C701.344 302.995 696.739 296.393 689.851 295.157C682.964 293.92 676.362 298.524 675.125 305.411L670.825 329.495C669.588 336.381 674.193 342.982 681.08 344.219C687.968 345.456 694.57 340.852 695.807 333.965Z"
        fill="#E0C8FF" />
    <path
        d="M987.769 339.539L984.268 315.322C983.26 308.397 976.829 303.584 969.903 304.573C962.978 305.581 958.164 312.011 959.153 318.936L962.654 343.153C963.663 350.078 970.094 354.891 977.019 353.902C983.945 352.893 988.759 346.463 987.769 339.539Z"
        fill="#E0C8FF" />
    <path
        d="M737.475 245.39L747.083 236.43C752.201 231.655 752.487 223.627 747.711 218.51C742.935 213.393 734.906 213.107 729.788 217.882L720.179 226.842C715.061 231.617 714.776 239.645 719.552 244.763C724.327 249.88 732.357 250.165 737.475 245.39Z"
        fill="#E0C8FF" />
    <path
        d="M750.946 445.254L741.984 435.647C737.209 430.529 729.179 430.244 724.061 435.019C718.943 439.794 718.658 447.822 723.433 452.939L732.395 462.546C737.171 467.664 745.2 467.949 750.318 463.174C755.436 458.399 755.722 450.371 750.946 445.254Z"
        fill="#E0C8FF" />
    <path
        d="M969.089 270.275L951.767 245.431C950.469 243.569 947.908 243.112 946.046 244.409L931.982 254.211C930.12 255.509 929.663 258.07 930.961 259.932L948.283 284.777C949.581 286.639 952.143 287.096 954.005 285.798L968.068 275.996C969.93 274.698 970.387 272.137 969.089 270.275Z"
        fill="#E0C8FF" />
    <path
        d="M879.375 490.149L891.743 485.679C898.326 483.301 901.751 476.034 899.353 469.433C896.975 462.85 889.707 459.445 883.105 461.823L870.737 466.294C864.154 468.672 860.729 475.939 863.127 482.54C865.505 489.122 872.773 492.546 879.375 490.149Z"
        fill="#E0C8FF" />
    <path
        d="M854.908 486.302C934.54 472.449 987.863 396.674 974.008 317.054C960.152 237.434 884.366 184.12 804.734 197.973C725.102 211.826 671.78 287.6 685.635 367.22C699.49 446.84 775.276 500.155 854.908 486.302Z"
        fill="#E0C8FF" />
    <path opacity="0.2"
        d="M815.903 231.408C820.241 236.716 822.543 243.717 822.828 250.793C823.171 257.927 821.249 265.156 817.824 271.415C814.247 277.731 808.311 283.21 801.233 285.207C794.289 287.376 786.887 286.9 780.608 284.256C787.382 284.294 793.889 283.191 799.445 280.565C802.204 279.234 804.734 277.579 806.827 275.429C809.053 273.451 810.728 270.901 812.25 268.314C812.973 266.964 813.696 265.575 814.343 264.167C814.875 262.721 815.541 261.294 815.941 259.811C817.025 256.881 817.444 253.799 817.862 250.679C818.471 244.42 817.862 237.895 815.903 231.408Z"
        fill="black" />
    <path opacity="0.2"
        d="M777.564 268.391C774.235 264.967 772.408 260.134 772.066 255.169C771.704 250.185 772.922 245.03 775.376 240.654C777.85 236.146 782.245 232.322 787.268 231.028C792.215 229.62 797.39 230.191 801.595 232.417C796.914 232.797 792.614 233.806 789.056 235.67C785.46 237.496 782.911 240.388 780.951 243.755C776.936 250.87 775.662 259.164 777.564 268.372V268.391Z"
        fill="black" />
    <path opacity="0.2"
        d="M830.458 429.806C832.323 432.66 832.894 436.312 832.38 439.832C831.828 443.351 830.173 446.794 827.661 449.382C825.15 452.121 821.383 453.871 817.71 453.89C814.057 453.947 810.614 452.692 808.045 450.466C811.375 450.903 814.495 450.903 817.292 450.257C820.089 449.61 822.353 448.145 824.256 446.167C826.234 444.112 827.775 441.658 828.841 438.938C829.868 436.198 830.42 433.135 830.458 429.787V429.806Z"
        fill="black" />
    <path opacity="0.2"
        d="M810.537 445.368C808.958 443.504 808.406 440.916 808.653 438.405C808.939 435.875 810.118 433.383 811.907 431.538C813.714 429.559 816.511 428.285 819.156 428.399C821.782 428.494 824.179 429.521 825.796 431.328C823.418 431.328 821.325 431.5 819.575 432.051C817.824 432.603 816.492 433.516 815.294 434.753C812.782 437.416 811.165 440.669 810.537 445.387V445.368Z"
        fill="black" />
    <path opacity="0.2"
        d="M740.633 391.588C744.039 391.987 747.217 393.947 749.424 396.915C751.65 399.92 752.62 403.915 751.935 407.758C751.364 411.81 748.415 415.253 745.238 416.889C742.022 418.602 738.522 419.172 735.173 418.544C737.932 416.585 740.405 414.835 742.289 412.837C744.191 410.859 745.314 408.88 745.637 406.674C746.037 404.334 745.885 401.804 745.048 399.331C744.23 396.8 742.669 394.27 740.633 391.588Z"
        fill="black" />
    <path opacity="0.2"
        d="M733.879 413.617C731.349 413.712 728.932 412.476 727.201 410.383C725.469 408.253 724.67 405.285 725.184 402.431C725.622 399.368 727.905 396.8 730.264 395.735C732.661 394.613 735.211 394.422 737.589 395.259C735.82 397.01 734.279 398.398 733.232 399.787C732.148 401.176 731.672 402.298 731.482 403.516C731.253 404.866 731.234 406.35 731.577 407.948C731.919 409.603 732.719 411.411 733.879 413.617Z"
        fill="black" />
    <path opacity="0.2"
        d="M905.803 244.249C908.086 246.817 909.152 250.374 908.847 254.065C908.505 257.793 906.583 261.427 903.52 263.843C900.399 266.487 895.909 267.115 892.446 266.221C888.907 265.365 885.92 263.481 883.827 260.761C887.176 261.123 890.201 261.465 892.941 261.218C895.662 261.008 897.831 260.266 899.543 258.84C901.408 257.356 902.949 255.358 903.976 252.961C905.042 250.526 905.556 247.597 905.822 244.229L905.803 244.249Z"
        fill="black" />
    <path opacity="0.2"
        d="M886.11 256.215C884.151 254.598 883.161 252.068 883.256 249.347C883.389 246.608 884.759 243.868 887.024 242.061C889.383 240.064 892.808 239.664 895.281 240.444C897.812 241.205 899.847 242.746 901.065 244.953C898.573 245.086 896.518 245.105 894.786 245.447C893.055 245.771 891.951 246.284 891 247.064C889.935 247.921 888.926 249.024 888.127 250.451C887.271 251.915 886.662 253.799 886.091 256.215H886.11Z"
        fill="black" />
    <path
        d="M869.919 369.844C887.404 366.496 898.858 349.527 895.491 331.93C892.123 314.352 875.208 302.805 857.723 306.153C840.237 309.501 828.783 326.47 832.151 344.067C835.519 361.645 852.433 373.192 869.919 369.844Z"
        fill="#E0C8FF" />
    <path opacity="0.1"
        d="M869.919 369.844C887.404 366.496 898.858 349.527 895.491 331.93C892.123 314.352 875.208 302.805 857.723 306.153C840.237 309.501 828.783 326.47 832.151 344.067C835.519 361.645 852.433 373.192 869.919 369.844Z"
        fill="black" />
    <path opacity="0.2"
        d="M867.521 316.825C877.054 314.999 886.396 318.043 892.998 324.225C886.852 311.137 872.487 303.299 857.685 306.134C840.199 309.482 828.745 326.47 832.113 344.048C834.548 356.737 844.005 366.268 855.668 369.33C849.941 365.107 845.736 358.791 844.29 351.22C841.246 335.278 851.634 319.869 867.521 316.825Z"
        fill="black" />
    <path opacity="0.2"
        d="M903.615 316.882C908.676 323.579 911.321 332.158 911.568 340.814C911.872 349.508 909.494 358.297 905.308 365.925C900.951 373.592 893.835 380.231 885.273 382.761C876.863 385.482 867.826 385.101 860.006 382.115C868.32 382.476 876.464 381.297 883.466 378.101C885.235 377.34 886.833 376.293 888.47 375.342C889.954 374.182 891.571 373.173 892.827 371.747C895.662 369.274 897.774 366.059 899.714 362.787C900.628 361.093 901.522 359.343 902.321 357.574C902.987 355.748 903.805 353.979 904.3 352.095C905.613 348.424 906.126 344.543 906.583 340.662C907.23 332.843 906.279 324.739 903.596 316.863L903.615 316.882Z"
        fill="black" />
    <path
        d="M939.727 306.742C945.892 304.269 948.879 297.231 946.387 291.048C943.894 284.846 936.892 281.821 930.709 284.294C924.544 286.768 921.557 293.806 924.049 299.989C926.542 306.191 933.544 309.216 939.727 306.742Z"
        fill="#E0C8FF" />
    <path opacity="0.1"
        d="M939.727 306.742C945.892 304.269 948.879 297.231 946.387 291.048C943.894 284.846 936.892 281.821 930.709 284.294C924.544 286.768 921.557 293.806 924.049 299.989C926.542 306.191 933.544 309.216 939.727 306.742Z"
        fill="black" />
    <path opacity="0.2"
        d="M935.066 287.49C938.434 286.139 942.068 286.596 944.922 288.384C941.744 284.028 935.922 282.182 930.709 284.275C924.544 286.748 921.557 293.787 924.049 299.97C925.838 304.44 929.986 307.256 934.476 307.56C932.079 306.419 930.081 304.402 929.015 301.739C926.77 296.127 929.472 289.735 935.066 287.49Z"
        fill="black" />
    <path opacity="0.2"
        d="M948.29 284.94C950.763 286.938 952.437 289.887 953.217 293.083C954.017 296.298 953.788 299.741 952.78 302.899C951.714 306.095 949.488 309.12 946.425 310.641C943.438 312.22 940.032 312.639 936.969 311.935C940.032 311.307 942.848 310.204 945.112 308.53C947.376 306.875 948.898 304.535 949.755 301.91C951.562 296.507 951.125 290.533 948.29 284.94Z"
        fill="black" />
    <path
        d="M916.401 418.45C924.431 413.466 926.866 402.908 921.862 394.842C916.858 386.776 906.298 384.264 898.269 389.249C890.24 394.233 887.804 404.791 892.808 412.857C897.812 420.923 908.372 423.434 916.401 418.45Z"
        fill="#E0C8FF" />
    <path opacity="0.1"
        d="M916.401 418.45C924.431 413.466 926.866 402.908 921.862 394.842C916.858 386.776 906.298 384.264 898.269 389.249C890.24 394.233 887.804 404.791 892.808 412.857C897.812 420.923 908.372 423.434 916.401 418.45Z"
        fill="black" />
    <path opacity="0.2"
        d="M905.157 392.654C909.533 389.952 914.727 389.667 919.179 391.493C913.662 386.186 905.062 385.025 898.269 389.248C890.24 394.214 887.804 404.81 892.808 412.857C896.423 418.678 902.911 421.608 909.266 420.904C905.632 419.896 902.36 417.575 900.191 414.093C895.662 406.788 897.888 397.181 905.157 392.654Z"
        fill="black" />
    <path opacity="0.2"
        d="M923.042 385.843C926.752 388.259 929.72 391.949 931.452 396.192C933.24 400.434 933.716 405.209 933.088 409.775C932.403 414.378 930.139 418.982 926.41 421.874C922.795 424.841 918.247 426.306 913.833 426.401C918.038 425.089 921.843 422.901 924.735 420.028C927.665 417.137 929.34 413.332 929.911 409.337C930.519 405.247 930.234 401.043 929.092 397.048C927.894 393.072 925.915 389.191 923.023 385.862L923.042 385.843Z"
        fill="black" />
    <path
        d="M757.319 326.584C757.719 339.787 745.941 350.858 731.006 351.296C716.089 351.734 703.664 341.385 703.265 328.182C702.865 314.98 714.643 303.908 729.579 303.47C744.495 303.033 756.92 313.382 757.319 326.584Z"
        fill="#E0C8FF" />
    <path opacity="0.1"
        d="M757.319 326.584C757.719 339.787 745.941 350.858 731.006 351.296C716.089 351.734 703.664 341.385 703.265 328.182C702.865 314.98 714.643 303.908 729.579 303.47C744.495 303.033 756.92 313.382 757.319 326.584Z"
        fill="black" />
    <path opacity="0.2"
        d="M713.729 333.547C713.938 340.738 718.086 347.015 724.308 350.782C712.549 348.48 703.607 339.368 703.283 328.182C702.884 314.979 714.68 303.908 729.597 303.47C740.366 303.147 749.822 308.435 754.389 316.368C749.917 312.906 744.038 310.908 737.607 311.099C724.079 311.498 713.386 321.562 713.748 333.547H713.729Z"
        fill="black" />
    <path opacity="0.2"
        d="M754.104 306.552C760.193 308.968 765.444 314.009 768.165 320.534C769.611 323.768 770.049 327.421 769.991 330.94C769.953 334.517 768.964 337.903 767.689 341.308C766.053 344.523 763.998 347.529 761.372 349.888C758.709 352.171 755.874 354.206 752.734 355.538C746.589 358.372 739.948 359.723 733.403 359.457C739.549 357.288 745.371 354.739 750.508 351.467C755.645 348.195 759.926 343.99 762.267 338.873C763.313 336.324 764.207 333.47 764.379 330.598C764.721 327.744 764.512 324.853 763.789 322.037C762.305 316.406 758.842 311.041 754.123 306.571L754.104 306.552Z"
        fill="black" />
    <path
        d="M849.77 755.055L857.494 756.482L859.226 764.624L860.957 756.482L868.682 755.055L860.976 753.172L859.226 745.486L857.475 753.172L849.77 755.055Z"
        fill="#455A64" />
    <path
        d="M676.989 469.128L684.714 470.555L686.445 478.697L688.158 470.555L695.883 469.128L688.196 467.245L686.445 459.56L684.676 467.245L676.989 469.128Z"
        fill="#455A64" />
    <path
        d="M1106.08 465.78L1113.8 467.207L1115.51 475.33L1117.25 467.207L1124.97 465.761L1117.28 463.897L1115.51 456.192L1113.76 463.897L1106.08 465.78Z"
        fill="#455A64" />
    <path
        d="M1189.55 683.697L1193.87 684.496L1194.84 689.043L1195.81 684.496L1200.13 683.697L1195.83 682.651L1194.84 678.352L1193.85 682.651L1189.55 683.697Z"
        fill="#455A64" />
    <path
        d="M1130.45 155.466L1134.77 156.246L1135.74 160.812L1136.69 156.246L1141.01 155.447L1136.71 154.401L1135.74 150.102L1134.75 154.401L1130.45 155.466Z"
        fill="#455A64" />
    <path
        d="M1215.5 290.762L1219.82 291.561L1220.79 296.108L1221.76 291.561L1226.06 290.762L1221.78 289.697L1220.79 285.397L1219.8 289.697L1215.5 290.762Z"
        fill="#455A64" />
    <path
        d="M556.379 351.772L560.698 352.571L561.668 357.118L562.62 352.571L566.939 351.772L562.639 350.707L561.668 346.407L560.679 350.707L556.379 351.772Z"
        fill="#455A64" />
    <path
        d="M446.272 706.222L450.591 707.021L451.543 711.567L452.513 707.021L456.832 706.222L452.532 705.175L451.543 700.876L450.572 705.175L446.272 706.222Z"
        fill="#455A64" />
    <path
        d="M1162.34 594.152L1166.66 594.951L1167.63 599.498L1168.58 594.951L1172.9 594.152L1168.6 593.106L1167.63 588.807L1166.64 593.106L1162.34 594.152Z"
        fill="#455A64" />
    <path
        d="M573.693 732.475L578.012 733.274L578.983 737.82L579.953 733.274L584.272 732.475L579.972 731.428L578.983 727.129L577.993 731.428L573.693 732.475Z"
        fill="#455A64" />
    <path
        d="M725.754 173.899L730.054 174.698L731.024 179.245L731.995 174.698L736.314 173.899L732.014 172.853L731.024 168.554L730.035 172.853L725.754 173.899Z"
        fill="#455A64" />
    <path
        d="M981.301 301.454L985.62 302.253L986.59 306.8L987.561 302.253L991.861 301.454L987.58 300.408L986.59 296.108L985.601 300.408L981.301 301.454Z"
        fill="#455A64" />
    <path
        d="M638.308 643.596L642.627 644.395L643.597 648.941L644.548 644.395L648.867 643.596L644.567 642.549L643.597 638.25L642.608 642.549L638.308 643.596Z"
        fill="#455A64" />
    <path
        d="M451.543 784.313C453.16 784.313 453.16 786.825 451.543 786.825C449.926 786.825 449.926 784.313 451.543 784.313Z"
        fill="#455A64" />
    <path
        d="M1074.99 632.029C1076.6 632.029 1076.6 634.54 1074.99 634.54C1073.37 634.54 1073.37 632.029 1074.99 632.029Z"
        fill="#455A64" />
    <path
        d="M1086.8 453.13C1088.42 453.13 1088.42 455.641 1086.8 455.641C1085.19 455.641 1085.19 453.13 1086.8 453.13Z"
        fill="#455A64" />
    <path
        d="M999.3 360.903C1000.92 360.903 1000.92 363.414 999.3 363.414C997.683 363.414 997.683 360.903 999.3 360.903Z"
        fill="#455A64" />
    <path
        d="M612.983 801.245C614.601 801.245 614.601 803.756 612.983 803.756C611.366 803.756 611.366 801.245 612.983 801.245Z"
        fill="#455A64" />
    <path
        d="M561.669 728.727C563.286 728.727 563.286 731.238 561.669 731.238C560.052 731.238 560.052 728.727 561.669 728.727Z"
        fill="#455A64" />
    <path
        d="M690.631 695.53C692.248 695.53 692.248 698.041 690.631 698.041C689.014 698.041 689.014 695.53 690.631 695.53Z"
        fill="#455A64" />
    <path
        d="M927.55 728.727C929.167 728.727 929.167 731.219 927.55 731.219C925.933 731.219 925.933 728.727 927.55 728.727Z"
        fill="#455A64" />
    <path
        d="M1134.52 648.408C1136.14 648.408 1136.14 650.919 1134.52 650.919C1132.9 650.919 1132.9 648.408 1134.52 648.408Z"
        fill="#455A64" />
    <path
        d="M1082.16 510.03C1083.78 510.03 1083.78 512.541 1082.16 512.541C1080.54 512.541 1080.54 510.03 1082.16 510.03Z"
        fill="#455A64" />
    <path
        d="M869.652 726.234C870.794 726.234 870.794 728.004 869.652 728.004C868.51 728.004 868.51 726.234 869.652 726.234Z"
        fill="#455A64" />
    <path
        d="M596.183 177.324C597.325 177.324 597.325 179.093 596.183 179.093C595.042 179.093 595.042 177.324 596.183 177.324Z"
        fill="#455A64" />
    <path
        d="M939.689 622.954C940.831 622.954 940.831 624.723 939.689 624.723C938.548 624.723 938.548 622.954 939.689 622.954Z"
        fill="#455A64" />
    <path
        d="M598.428 736.944C599.57 736.944 599.57 738.714 598.428 738.714C597.287 738.714 597.287 736.944 598.428 736.944Z"
        fill="#455A64" />
    <path
        d="M824.788 523.423C825.929 523.423 825.929 525.192 824.788 525.192C823.646 525.192 823.646 523.423 824.788 523.423Z"
        fill="#455A64" />
    <path
        d="M1016.21 533.581C1019.3 533.581 1019.32 538.375 1016.21 538.375C1013.11 538.375 1013.13 533.581 1016.21 533.581Z"
        fill="#455A64" />
    <path
        d="M679.977 203.006L687.701 204.433L689.433 212.556L691.145 204.433L698.87 202.987L691.183 201.123L689.433 193.418L687.663 201.123L679.977 203.006Z"
        fill="#455A64" />
    <path
        d="M1004.68 268.334L1012.39 269.76L1014.12 277.902L1015.85 269.76L1023.58 268.334L1015.89 266.45L1014.12 258.765L1012.37 266.45L1004.68 268.334Z"
        fill="#455A64" />
    <path
        d="M442.105 463.536L449.83 464.963L451.543 473.086L453.274 464.963L460.999 463.517L453.312 461.653L451.543 453.948L449.792 461.653L442.105 463.536Z"
        fill="#455A64" />
    <path
        d="M1126.28 75.7945L1134.01 77.2213L1135.74 85.3634L1137.45 77.2213L1145.18 75.7945L1137.49 73.9112L1135.74 66.2256L1133.97 73.9112L1126.28 75.7945Z"
        fill="#455A64" />
    <path
        d="M848.666 94.1523L852.985 94.9513L853.936 99.498L854.907 94.9513L859.226 94.1523L854.926 93.106L853.936 88.8066L852.966 93.106L848.666 94.1523Z"
        fill="#455A64" />
    <path
        d="M451.543 246.152L455.862 246.951L456.832 251.497L457.803 246.951L462.122 246.133L457.822 245.086L456.832 240.787L455.843 245.086L451.543 246.152Z"
        fill="#455A64" />
    <path
        d="M530.826 238.6C532.443 238.6 532.443 241.111 530.826 241.111C529.209 241.111 529.209 238.6 530.826 238.6Z"
        fill="#455A64" />
    <path
        d="M435.693 686.76C437.311 686.76 437.311 689.252 435.693 689.252C434.076 689.252 434.076 686.76 435.693 686.76Z"
        fill="#455A64" />
    <path
        d="M538.323 643.596C539.941 643.596 539.941 646.107 538.323 646.107C536.706 646.107 536.706 643.596 538.323 643.596Z"
        fill="#455A64" />
    <path
        d="M436.893 326.812C438.51 326.812 438.51 329.324 436.893 329.324C435.275 329.324 435.275 326.812 436.893 326.812Z"
        fill="#455A64" />
    <path
        d="M538.323 138.687C539.941 138.687 539.941 141.198 538.323 141.198C536.706 141.198 536.706 138.687 538.323 138.687Z"
        fill="#455A64" />
    <path
        d="M702.199 74.5391C703.817 74.5391 703.817 77.0502 702.199 77.0502C700.582 77.0502 700.582 74.5391 702.199 74.5391Z"
        fill="#455A64" />
    <path
        d="M651.912 521.9C653.053 521.9 653.053 523.67 651.912 523.67C650.77 523.67 650.77 521.9 651.912 521.9Z"
        fill="#455A64" />
    <path
        d="M651.055 749.861C652.197 749.861 652.197 751.631 651.055 751.631C649.914 751.631 649.914 749.861 651.055 749.861Z"
        fill="#455A64" />
    <path
        d="M1103.24 229.754L1107.56 230.553L1108.53 235.1L1109.5 230.553L1113.8 229.754L1109.52 228.708L1108.53 224.408L1107.54 228.708L1103.24 229.754Z"
        fill="#455A64" />
    <path
        d="M1199.86 455.66L1204.18 456.459L1205.13 461.006L1206.1 456.459L1210.42 455.66L1206.12 454.614L1205.13 450.314L1204.16 454.614L1199.86 455.66Z"
        fill="#455A64" />
    <path
        d="M1091.22 234.053C1092.83 234.053 1092.83 236.564 1091.22 236.564C1089.6 236.564 1089.6 234.053 1091.22 234.053Z"
        fill="#455A64" />
    <path
        d="M963.396 108.991C964.538 108.991 964.538 110.76 963.396 110.76C962.255 110.76 962.255 108.991 963.396 108.991Z"
        fill="#455A64" />
    <path
        d="M775.128 832.006C776.269 832.006 776.269 833.775 775.128 833.775C773.986 833.775 773.986 832.006 775.128 832.006Z"
        fill="#455A64" />
    <path
        d="M1180.6 255.188C1181.75 255.188 1181.75 256.958 1180.6 256.958C1179.46 256.958 1179.46 255.188 1180.6 255.188Z"
        fill="#455A64" />
    <path
        d="M1002.52 211.681C1003.66 211.681 1003.66 213.45 1002.52 213.45C1001.37 213.45 1001.37 211.681 1002.52 211.681Z"
        fill="#455A64" />
    <path
        d="M1005.08 76.1562C1006.23 76.1562 1006.23 77.9255 1005.08 77.9255C1003.94 77.9255 1003.94 76.1562 1005.08 76.1562Z"
        fill="#455A64" />
    <path
        d="M757.091 490.454C760.173 490.454 760.192 495.248 757.091 495.248C753.989 495.248 753.989 490.454 757.091 490.454Z"
        fill="#455A64" />
    <path
        d="M1084.48 367.713C1087.56 367.713 1087.58 372.507 1084.48 372.507C1081.38 372.507 1081.38 367.713 1084.48 367.713Z"
        fill="#455A64" />
    <path
        d="M542.394 370.11C545.477 370.11 545.496 374.904 542.394 374.904C539.293 374.904 539.293 370.11 542.394 370.11Z"
        fill="#455A64" />
    <path
        d="M1202.43 384.568C1205.51 384.568 1205.53 389.362 1202.43 389.362C1199.33 389.362 1199.33 384.568 1202.43 384.568Z"
        fill="#455A64" />
    <path
        d="M508.965 604.14C512.047 604.14 512.066 608.934 508.965 608.934C505.863 608.934 505.863 604.14 508.965 604.14Z"
        fill="#455A64" />
    <path
        d="M629.955 135.853L634.274 136.651L635.244 141.198L636.196 136.651L640.515 135.853L636.215 134.806L635.244 130.507L634.255 134.806L629.955 135.853Z"
        fill="#455A64" />
    <path
        d="M865.314 588.16L869.633 588.959L870.604 593.506L871.555 588.959L875.874 588.16L871.574 587.114L870.604 582.814L869.614 587.114L865.314 588.16Z"
        fill="#455A64" />
    <path
        d="M1004.68 796.108C1006.3 796.108 1006.3 798.62 1004.68 798.62C1003.07 798.62 1003.07 796.108 1004.68 796.108Z"
        fill="#455A64" />
    <path
        d="M921.728 784.313C923.345 784.313 923.345 786.825 921.728 786.825C920.11 786.825 920.11 784.313 921.728 784.313Z"
        fill="#455A64" />
    <path
        d="M948.422 449.991L952.741 450.79L953.711 455.356L954.663 450.79L958.982 449.991L954.682 448.945L953.711 444.646L952.722 448.945L948.422 449.991Z"
        fill="#455A64" />
    <path
        d="M1096.35 709.36L1100.67 710.14L1101.64 714.705L1102.61 710.14L1106.93 709.341L1102.63 708.294L1101.64 703.995L1100.65 708.294L1096.35 709.36Z"
        fill="#455A64" />
    <path
        d="M1135.74 818.385L1140.04 819.184L1141.01 823.73L1141.98 819.184L1146.3 818.385L1142 817.338L1141.01 813.039L1140.02 817.338L1135.74 818.385Z"
        fill="#455A64" />
    <path
        d="M966.631 210.063C968.248 210.063 968.248 212.575 966.631 212.575C965.014 212.575 965.014 210.063 966.631 210.063Z"
        fill="#455A64" />
    <path
        d="M1106.93 766.793C1108.07 766.793 1108.07 768.562 1106.93 768.562C1105.79 768.562 1105.79 766.793 1106.93 766.793Z"
        fill="#455A64" />
    <path
        d="M483.584 490.454L487.884 491.253L488.854 495.8L489.825 491.253L494.144 490.454L489.844 489.408L488.854 485.108L487.865 489.408L483.584 490.454Z"
        fill="#455A64" />
    <path
        d="M433.677 583.062C435.294 583.062 435.294 585.554 433.677 585.554C432.06 585.554 432.06 583.062 433.677 583.062Z"
        fill="#455A64" />
    <path
        d="M742.802 385.71C744.419 385.71 744.419 388.221 742.802 388.221C741.185 388.221 741.185 385.71 742.802 385.71Z"
        fill="#455A64" />
    <path
        d="M651.055 247.236C652.197 247.236 652.197 249.006 651.055 249.006C649.914 249.006 649.914 247.236 651.055 247.236Z"
        fill="#455A64" />
    <path
        d="M506.663 91.7559C509.745 91.7559 509.764 96.5498 506.663 96.5498C503.562 96.5498 503.562 91.7559 506.663 91.7559Z"
        fill="#455A64" />
    <path
        d="M1075.35 145.308C1078.43 145.308 1078.45 150.102 1075.35 150.102C1072.25 150.102 1072.25 145.308 1075.35 145.308Z"
        fill="#455A64" />
    <path
        d="M1176.82 812.962C1153.17 812.962 1129.18 811.536 1105.28 808.627C1046.14 801.422 1000.71 785.187 973.983 761.689C942.685 734.18 943.226 703.153 956.942 685.948L968.663 687.906C955.404 704.484 956.776 734.237 985.039 759.046C1010.14 781.099 1052.83 796.327 1108.48 803.114C1188.41 812.848 1269.79 805.243 1331.77 782.259C1400.6 756.727 1435.47 716.062 1429.94 667.773C1424.41 619.523 1375.74 561.159 1324.16 499.391C1274.45 439.791 1222.99 378.176 1212.27 325.001C1201.09 269.736 1234.26 220.421 1308.12 182.417C1398.69 135.84 1547.32 109.053 1726.71 107L1727 112.703C1551.1 114.719 1405.67 140.821 1317.43 186.22C1245.9 223.006 1213.81 270.82 1224.66 324.488C1235.26 376.883 1286.38 438.137 1335.8 497.376C1387.71 559.581 1436.72 618.325 1442.37 667.488C1448.1 717.659 1411.61 759.997 1339.58 786.707C1293.03 803.989 1236.04 813 1176.77 813L1176.82 812.962Z"
        fill="#C7C7C7" />
    <path
        d="M901.579 650.787C900.989 652.156 935.712 724.675 938.433 727.604C938.528 727.718 938.681 727.833 938.871 727.985C942.981 731.219 970.436 742.005 972.643 742.728C978.104 744.535 1032.84 660.222 1037.03 645.308C1038.08 641.56 1015.59 597.064 1007.94 590.919C1004.66 588.294 992.221 584.127 990.661 584.641C988.435 585.497 902.169 649.417 901.579 650.806V650.787Z"
        fill="#E0C8FF" />
    <path opacity="0.1"
        d="M901.579 650.787C900.989 652.156 935.712 724.675 938.433 727.604C938.528 727.718 938.681 727.833 938.871 727.985C942.981 731.219 970.436 742.005 972.643 742.728C978.104 744.535 1032.84 660.222 1037.03 645.308C1038.08 641.56 1015.59 597.064 1007.94 590.919C1004.66 588.294 992.221 584.127 990.661 584.641C988.435 585.497 902.169 649.417 901.579 650.806V650.787Z"
        fill="black" />
    <path opacity="0.1"
        d="M901.579 650.787C900.989 652.156 935.712 724.675 938.433 727.604C938.528 727.719 938.681 727.833 938.871 727.985C952.989 712.309 1019.24 638.688 1019.3 637.508C1019.35 636.367 996.712 594.381 990.661 584.66C988.435 585.497 902.169 649.436 901.579 650.806V650.787Z"
        fill="black" />
    <path
        d="M704.272 591.642C704.272 591.642 636.899 600.982 636.842 600.982C623.961 602.828 612.64 604.235 606.723 604.407C606.685 604.407 606.666 604.407 606.628 604.407C604.402 604.483 602.937 604.369 602.518 604.026C602.48 604.007 602.442 603.988 602.423 603.969C599.284 600.507 581.475 498.064 582.046 494.278C582.616 490.493 593.462 491.862 597.324 495.287C601.186 498.749 625.559 534.894 625.559 534.894L692.99 526.2L704.272 591.642Z"
        fill="#455A64" />
    <path
        d="M592.625 605.947L591.616 600.678C592.187 600.526 592.739 600.297 593.253 599.936C595.631 598.3 596.24 595.009 594.585 592.631C593.443 590.976 591.521 590.177 589.638 590.386L588.724 585.592C589.314 585.459 589.885 585.193 590.418 584.831C592.815 583.176 593.405 579.923 591.75 577.526C590.608 575.852 588.648 575.072 586.765 575.319L585.832 570.506C586.441 570.373 587.031 570.107 587.583 569.745C589.98 568.09 590.57 564.818 588.915 562.44C587.735 560.747 585.775 559.948 583.854 560.233L582.94 555.44C583.568 555.287 584.177 555.021 584.748 554.621C587.126 552.985 587.735 549.713 586.08 547.316C584.9 545.623 582.883 544.824 580.962 545.129L580.048 540.335C580.714 540.202 581.342 539.935 581.913 539.536C584.291 537.9 584.9 534.609 583.245 532.231C582.046 530.499 579.991 529.719 578.05 530.043L577.137 525.268C577.822 525.135 578.469 524.868 579.078 524.45C581.475 522.795 582.065 519.523 580.41 517.145C579.211 515.395 577.137 514.615 575.177 514.957L574.264 510.163C574.968 510.049 575.653 509.764 576.262 509.345C578.64 507.709 579.249 504.437 577.594 502.04C576.376 500.271 574.264 499.491 572.285 499.871L571.41 495.363L582.027 494.24L602.5 604.007L592.606 605.928L592.625 605.947Z"
        fill="#37474F" />
    <path
        d="M624.761 599.803C624.418 593.278 620.727 587.228 616.522 584.051C612.489 581.008 606.99 578.592 601.32 579.315C601.149 579.334 601.187 579.638 601.358 579.638C612.222 580.19 622.554 589.055 624.418 599.841C624.456 600.05 624.78 600.031 624.761 599.803Z"
        fill="#37474F" />
    <path
        d="M637.642 596.549C637.185 589.054 636.101 581.597 634.959 574.177C633.837 566.834 632.657 559.491 631.42 552.167C630.716 547.963 630.012 543.759 629.08 539.611C629.023 539.326 628.623 539.402 628.642 539.687C629.213 547.164 630.336 554.621 631.325 562.059C632.314 569.421 633.361 576.784 634.541 584.127C635.225 588.331 636.006 592.516 636.995 596.663C637.09 597.063 637.642 596.949 637.623 596.549H637.642Z"
        fill="#37474F" />
    <path
        d="M643.33 594.914C642.874 587.418 641.789 579.961 640.648 572.542C639.506 565.198 638.345 557.855 637.109 550.531C636.405 546.327 635.701 542.123 634.768 537.976C634.711 537.709 634.312 537.766 634.331 538.052C634.902 545.528 636.024 552.985 637.013 560.424C638.003 567.786 639.049 575.148 640.229 582.491C640.914 586.695 641.694 590.881 642.683 595.028C642.779 595.427 643.33 595.313 643.311 594.914H643.33Z"
        fill="#37474F" />
    <path
        d="M656.954 598.204L649.324 531.831C649.324 531.831 655.907 524.811 668.617 522.604C696.719 517.734 748.167 516.003 778.134 521.272C803.421 525.724 883.713 601.039 896.347 611.026C900.951 614.66 911.701 608.116 911.701 608.116L948.27 682.936C948.27 682.936 919.407 702.245 890.867 685.485C855.725 664.844 783.538 592.136 769.249 589.206C756.349 586.543 701.134 599.384 673.279 602.789C663.537 603.969 656.954 598.204 656.954 598.204Z"
        fill="#E0C8FF" />
    <path
        d="M666.657 592.346C666.505 584.831 665.706 577.355 664.85 569.879C664.013 562.497 663.118 555.116 662.186 547.754C661.653 543.531 661.102 539.307 660.341 535.122C660.284 534.837 659.884 534.894 659.903 535.179C660.169 542.675 661.007 550.17 661.711 557.646C662.415 565.047 663.157 572.447 664.051 579.828C664.565 584.07 665.173 588.255 666.011 592.46C666.087 592.859 666.657 592.783 666.638 592.384L666.657 592.346Z"
        fill="#263238" />
    <path opacity="0.1"
        d="M779.752 548.419C778.001 549.161 776.669 550.588 775.452 552.015C774.31 553.499 773.245 555.097 772.446 556.771C770.79 560.138 769.668 563.714 768.983 567.348C768.64 569.155 768.412 570.982 768.203 572.808C768.107 574.634 767.955 576.46 767.993 578.287C768.031 580.113 768.126 581.939 768.317 583.765C768.564 585.592 768.811 587.399 769.249 589.187C769.782 587.399 770.105 585.611 770.448 583.842C770.752 582.072 771.152 580.322 771.399 578.553C771.684 576.803 772.027 575.072 772.293 573.321L772.769 570.734C772.921 569.878 773.035 569.003 773.245 568.147C773.892 564.723 774.653 561.336 775.604 558.007C776.612 554.697 777.64 551.368 779.752 548.4V548.419Z"
        fill="black" />
    <path
        d="M805.925 548.385C810.778 539.976 805.106 527.617 793.257 520.779C781.407 513.942 767.866 515.215 763.013 523.623C758.16 532.031 763.832 544.391 775.681 551.228C787.531 558.066 801.072 556.793 805.925 548.385Z"
        fill="#E0C8FF" />
    <path opacity="0.1"
        d="M805.925 548.385C810.778 539.976 805.106 527.617 793.257 520.779C781.407 513.942 767.866 515.215 763.013 523.623C758.16 532.031 763.832 544.391 775.681 551.228C787.531 558.066 801.072 556.793 805.925 548.385Z"
        fill="black" />
    <path opacity="0.1"
        d="M948.289 682.918C948.289 682.918 919.444 702.246 890.885 685.486C855.743 664.845 783.556 592.136 769.267 589.207C756.367 586.543 701.152 599.384 673.278 602.79C663.556 603.969 656.972 598.205 656.972 598.205L649.971 537.329L929.3 644.09L948.289 682.937V682.918Z"
        fill="black" />
    <path
        d="M805.133 675.632C805.133 675.632 819.669 742.082 819.669 742.12C822.523 754.809 824.788 765.994 825.415 771.873C825.415 771.911 825.415 771.93 825.415 771.968C825.663 774.194 825.663 775.639 825.358 776.096C825.339 776.134 825.32 776.172 825.301 776.191C822.105 779.596 721.321 805.297 717.497 805.012C713.672 804.746 714.205 793.826 717.306 789.717C720.446 785.589 754.617 758.499 754.617 758.499L740.728 691.954L805.095 675.632H805.133Z"
        fill="#455A64" />
    <path
        d="M828.079 785.836L822.903 787.244C822.713 786.692 822.428 786.16 822.047 785.665C820.221 783.42 816.91 783.078 814.665 784.904C813.105 786.179 812.458 788.157 812.8 790.003L808.101 791.296C807.911 790.725 807.606 790.174 807.207 789.679C805.38 787.415 802.088 787.073 799.824 788.918C798.245 790.193 797.617 792.209 797.998 794.055L793.279 795.348C793.089 794.759 792.803 794.169 792.385 793.655C790.558 791.391 787.248 791.068 785.003 792.894C783.404 794.188 782.757 796.223 783.195 798.107L778.495 799.4C778.286 798.792 777.982 798.202 777.544 797.65C775.717 795.405 772.426 795.044 770.162 796.889C768.564 798.183 767.917 800.275 768.373 802.159L763.674 803.452C763.483 802.806 763.179 802.197 762.722 801.645C760.896 799.4 757.585 799.058 755.34 800.884C753.704 802.216 753.076 804.308 753.552 806.23L748.852 807.504C748.681 806.82 748.357 806.192 747.901 805.64C746.074 803.376 742.763 803.053 740.518 804.879C738.863 806.211 738.254 808.341 738.73 810.282L734.03 811.575C733.859 810.872 733.536 810.225 733.06 809.654C731.233 807.409 727.942 807.048 725.678 808.893C724.022 810.244 723.394 812.412 723.927 814.353L719.494 815.57L717.534 805.069L825.396 776.153L828.079 785.874V785.836Z"
        fill="#37474F" />
    <path
        d="M819.441 754.276C812.972 755.132 807.207 759.26 804.372 763.693C801.652 767.954 799.654 773.623 800.814 779.216C800.852 779.369 801.138 779.33 801.138 779.159C800.852 768.297 808.882 757.301 819.479 754.619C819.689 754.562 819.651 754.257 819.422 754.276H819.441Z"
        fill="#37474F" />
    <path
        d="M815.198 741.683C807.759 742.71 800.415 744.365 793.089 746.096C785.859 747.789 778.629 749.539 771.418 751.328C767.289 752.355 763.141 753.382 759.089 754.638C758.822 754.714 758.918 755.113 759.203 755.075C766.623 753.934 773.968 752.222 781.293 750.662C788.561 749.102 795.81 747.485 803.04 745.754C807.188 744.745 811.279 743.642 815.35 742.348C815.731 742.215 815.598 741.683 815.198 741.74V741.683Z"
        fill="#37474F" />
    <path
        d="M813.124 736.127C805.685 737.154 798.34 738.809 791.015 740.54C783.785 742.234 776.555 743.984 769.344 745.772C765.215 746.799 761.067 747.827 757.015 749.082C756.748 749.158 756.843 749.558 757.129 749.52C764.549 748.378 771.893 746.666 779.219 745.106C786.487 743.546 793.736 741.929 800.966 740.198C805.114 739.19 809.205 738.086 813.276 736.793C813.657 736.66 813.524 736.127 813.124 736.184V736.127Z"
        fill="#37474F" />
    <path
        d="M915.602 616.106C915.602 616.106 887.081 623.849 884.931 624.438C883.77 624.762 882.914 633.741 882.914 633.741C882.914 633.741 803.136 589.473 770.486 588.674C759.298 588.407 733.575 606.803 732.148 624.476C729.826 653.145 732.851 693.266 738.274 716.779C740.69 727.281 747.902 736.393 747.902 736.393L816.055 723.704C816.055 723.704 817.272 709.722 815.903 701.998C813.829 690.317 806.123 663.779 806.123 663.779C828.003 667.47 887.328 697.014 887.328 697.014C887.328 697.014 919.35 721.973 953.75 693.038L915.602 616.087V616.106Z"
        fill="#E0C8FF" />
    <path
        d="M885.159 622.194C884.588 628.986 883.161 635.834 881.544 642.454C881.487 642.721 881.145 642.664 881.183 642.397C882.21 635.644 883.104 628.795 884.455 622.08C884.569 621.547 885.216 621.68 885.178 622.194H885.159Z"
        fill="#263238" />
    <path
        d="M915.62 612.473C915.773 612.435 915.868 612.72 915.716 612.777C910.483 614.451 905.955 616.334 901.179 618.408C898.953 619.378 886.852 625.523 888.736 629.632C889.04 630.317 889.782 630.488 890.791 630.279C892.009 630.032 893.378 629.042 894.52 628.434C897.032 627.083 899.581 625.827 902.188 624.705C907.04 622.612 911.986 620.976 917.067 620.025C917.238 619.987 917.276 620.253 917.105 620.31C910.255 622.536 903.443 624.99 896.917 628.338C893.778 629.955 889.269 633.399 887.937 629.746C886.586 626.018 894.254 620.824 896.404 619.606C902.397 616.22 909.17 613.956 915.64 612.435L915.62 612.473Z"
        fill="#263238" />
    <path
        d="M888.375 629.138C887.443 629.956 886.453 630.698 885.445 631.382C884.665 631.915 883.828 632.562 882.914 632.733C882.743 632.771 882.667 632.524 882.762 632.391C883.352 631.535 884.265 630.945 885.045 630.317C885.94 629.594 886.834 628.833 887.747 628.129C888.356 627.673 888.946 628.624 888.356 629.138H888.375Z"
        fill="#263238" />
    <path
        d="M752.696 724.922C760.04 724.028 767.29 722.525 774.501 720.965C781.636 719.405 788.771 717.826 795.906 716.171C799.977 715.239 804.068 714.288 808.102 713.108C808.368 713.032 808.273 712.632 808.006 712.671C800.681 713.66 793.432 715.22 786.202 716.646C779.029 718.054 771.856 719.519 764.721 721.136C760.63 722.049 756.578 723.076 752.563 724.294C752.182 724.408 752.316 724.96 752.715 724.922H752.696Z"
        fill="#263238" />
    <path opacity="0.1"
        d="M769.535 616.125C769.097 618.731 769.916 621.395 770.753 623.849C771.19 625.104 771.742 626.265 772.275 627.482C772.846 628.643 773.474 629.803 774.101 630.944C776.632 635.51 779.809 639.6 783.101 643.557C786.469 647.438 790.046 651.129 793.889 654.496C797.694 657.92 801.747 661.04 806.104 663.817C803.155 659.556 799.882 655.675 796.629 651.794C793.375 647.914 790.103 644.128 786.83 640.342C783.615 636.518 780.323 632.752 777.279 628.833C775.776 626.854 774.254 624.895 772.903 622.802C771.533 620.729 770.182 618.617 769.535 616.144V616.125Z"
        fill="black" />
    <path
        d="M783.862 594.533C779.6 585.801 766.186 583.595 753.895 589.587C741.604 595.58 735.078 607.508 739.34 616.239C743.602 624.971 757.015 627.178 769.307 621.186C781.598 615.193 788.124 603.265 783.862 594.533Z"
        fill="#E0C8FF" />
    <path opacity="0.1"
        d="M783.862 594.533C779.6 585.801 766.186 583.595 753.895 589.587C741.604 595.58 735.078 607.508 739.34 616.239C743.602 624.971 757.015 627.178 769.307 621.186C781.598 615.193 788.124 603.265 783.862 594.533Z"
        fill="black" />
    <path
        d="M985.695 610.38C961.208 575.49 947.699 546.098 948.365 533.067C948.955 521.653 954.834 488.114 965.508 469.927C968.724 464.449 1002.69 477.727 1001.85 484.462C1000.99 491.329 990.909 526.352 989.957 535.141C989.425 540.125 999.452 590.728 1001.96 602.18C1006.13 621.299 996.56 625.884 985.695 610.399V610.38Z"
        fill="#F7A9A0" />
    <path
        d="M980.196 445.311C978.37 447.213 977.361 446.281 977.818 441.601C978.256 436.883 984.002 418.849 977.514 417.384C971.007 415.9 963.301 441.563 963.168 449.382C962.996 457.22 965.508 469.928 965.508 469.928C968.019 465.229 975.173 454.442 980.196 445.311Z"
        fill="#A6A6A6" />
    <path
        d="M1001.85 484.462C1008.41 470.993 1017.41 454.633 1016.1 437.778C1015.83 434.467 1014.03 432.698 1014.03 432.698C1013.57 425.127 1009.86 423.072 1009.86 423.072C1007.27 416.167 1003.2 414.569 1003.2 414.569C1003.2 414.569 1002.57 405.704 997.13 405.19C991.042 404.6 993.135 417.175 990.034 424.803C982.956 442.248 968.039 465.077 965.489 469.909L1001.83 484.443L1001.85 484.462Z"
        fill="#A6A6A6" />
    <path
        d="M995.474 448.317C997.453 443.143 999.527 438.101 1000.8 432.699C1002.19 426.763 1002.53 420.809 1003.03 414.74C1003.03 414.55 1003.31 414.55 1003.31 414.74C1004.15 425.831 1001.05 438.672 995.703 448.412C995.569 448.641 995.36 448.584 995.474 448.317Z"
        fill="#263238" />
    <path
        d="M1005.39 454.12C1007.02 448.983 1009.86 439.909 1009.67 423.092C1009.67 423.035 1009.76 423.016 1009.76 423.092C1011.34 433.993 1009.82 444.113 1005.63 454.196C1005.5 454.5 1005.27 454.462 1005.39 454.12Z"
        fill="#263238" />
    <path
        d="M1010.79 457.126C1013.26 448.28 1013.68 442.382 1013.99 432.737C1013.99 432.68 1014.08 432.68 1014.08 432.737C1014.88 443.714 1013.93 447.804 1011.08 457.259C1010.98 457.582 1010.7 457.468 1010.79 457.126Z"
        fill="#263238" />
    <path
        d="M1001.85 484.462L965.508 469.928C965.508 469.928 959.781 472.458 956.033 478.774C952.285 485.09 945.207 529.092 947.946 541.533C950.705 553.975 974.412 599.536 987.293 614.812C1000.19 630.088 1005.6 618.979 1003.45 606.061C1001.3 593.144 991.727 539.193 991.765 535.978C991.803 532.744 1001.73 503.733 1003.24 497.721C1004.74 491.71 1001.85 484.462 1001.85 484.462Z"
        fill="#E0C8FF" />
    <path opacity="0.1"
        d="M987.293 614.812C977.514 603.227 961.512 574.216 953.141 555.439L997.225 570.031C999.756 584.755 1002.44 599.974 1003.45 606.062C1005.6 618.979 1000.19 630.069 987.274 614.812H987.293Z"
        fill="black" />
    <path opacity="0.1"
        d="M1000.17 493.574C995.17 491.272 990.014 489.237 984.877 487.239C979.797 485.261 974.697 483.301 969.579 481.361C966.649 480.258 963.719 479.135 960.77 478.127C960.58 478.051 960.523 478.241 960.694 478.317C965.717 480.562 970.873 482.579 975.991 484.652C981.052 486.688 986.132 488.723 991.231 490.683C994.162 491.805 997.092 492.889 1000.06 493.86C1000.35 493.955 1000.42 493.707 1000.15 493.574H1000.17Z"
        fill="black" />
    <path
        d="M909.246 611.806L953.959 691.649C953.959 691.649 960.218 693.532 967.525 689.214C984.116 679.378 1011.53 655.656 1021.79 634.254C1029.19 618.845 1023.27 606.556 1011.89 601.762C1009.02 600.544 971.52 588.635 958.087 589.853C943.875 591.165 926.18 597.805 916.457 603.873C911.662 606.86 909.246 611.806 909.246 611.806Z"
        fill="#E0C8FF" />
    <path
        d="M904.413 612.378C904.242 611.198 910.768 607.793 911.701 608.135C912.652 608.478 958.62 691.421 958.734 692.03C958.83 692.639 950.838 696.52 950.268 695.797C949.697 695.074 904.642 613.957 904.413 612.397V612.378Z"
        fill="#E0C8FF" />
    <path opacity="0.1"
        d="M904.413 612.378C904.242 611.198 910.768 607.793 911.701 608.135C912.652 608.478 958.62 691.421 958.734 692.03C958.83 692.639 950.838 696.52 950.268 695.797C949.697 695.074 904.642 613.957 904.413 612.397V612.378Z"
        fill="black" />
    <path d="M957.327 629.118L949.469 589.111L984.839 588.712L992.678 628.719L957.327 629.118Z"
        fill="#E0C8FF" />
    <path opacity="0.2"
        d="M957.327 629.118L949.469 589.111L984.839 588.712L992.678 628.719L957.327 629.118Z"
        fill="black" />
    <path opacity="0.1"
        d="M957.327 629.118L956.318 624.058L991.689 623.658L992.678 628.719L957.327 629.118Z"
        fill="black" />
    <path opacity="0.1"
        d="M977.933 595.675C976.677 595.675 975.478 594.781 975.25 593.659C975.021 592.536 975.878 591.604 977.133 591.585C978.389 591.585 979.588 592.479 979.816 593.601C980.044 594.724 979.188 595.656 977.933 595.675Z"
        fill="black" />
    <path opacity="0.1"
        d="M970.436 595.752C969.181 595.752 967.982 594.857 967.754 593.735C967.525 592.613 968.382 591.68 969.637 591.661C970.893 591.642 972.092 592.556 972.32 593.678C972.548 594.8 971.692 595.733 970.436 595.752Z"
        fill="black" />
    <path opacity="0.1"
        d="M962.959 595.846C961.703 595.846 960.504 594.952 960.276 593.829C960.048 592.707 960.904 591.775 962.16 591.756C963.416 591.756 964.614 592.65 964.843 593.772C965.071 594.895 964.215 595.827 962.959 595.846Z"
        fill="black" />
    <path opacity="0.1"
        d="M979.17 602.047C977.914 602.047 976.715 601.153 976.487 600.031C976.259 598.908 977.115 597.976 978.371 597.957C979.627 597.957 980.825 598.851 981.054 599.974C981.282 601.096 980.426 602.028 979.17 602.047Z"
        fill="black" />
    <path opacity="0.1"
        d="M971.692 602.123C970.437 602.123 969.238 601.229 969.01 600.107C968.781 598.984 969.637 598.052 970.893 598.033C972.149 598.033 973.348 598.927 973.576 600.05C973.804 601.172 972.948 602.104 971.692 602.123Z"
        fill="black" />
    <path opacity="0.1"
        d="M964.215 602.218C962.959 602.218 961.76 601.324 961.532 600.202C961.304 599.079 962.16 598.147 963.416 598.128C964.671 598.128 965.87 599.022 966.098 600.144C966.327 601.267 965.471 602.199 964.215 602.218Z"
        fill="black" />
    <path opacity="0.1"
        d="M980.425 608.42C979.169 608.42 977.97 607.526 977.742 606.404C977.514 605.281 978.37 604.349 979.626 604.33C980.881 604.33 982.08 605.224 982.308 606.347C982.537 607.469 981.68 608.401 980.425 608.42Z"
        fill="black" />
    <path opacity="0.1"
        d="M972.947 608.496C971.691 608.496 970.493 607.602 970.264 606.48C970.036 605.357 970.892 604.425 972.148 604.406C973.404 604.406 974.602 605.3 974.831 606.423C975.059 607.545 974.203 608.477 972.947 608.496Z"
        fill="black" />
    <path opacity="0.1"
        d="M965.451 608.591C964.195 608.591 962.997 607.697 962.768 606.575C962.54 605.452 963.396 604.52 964.652 604.501C965.908 604.501 967.106 605.395 967.335 606.517C967.563 607.64 966.707 608.572 965.451 608.591Z"
        fill="black" />
    <path
        d="M996.787 609.847C999.052 615.383 1012.12 618.332 1020.29 617.342C1020.84 617.266 1024.64 613.614 1029.46 609.39C1032.39 606.841 1035.72 604.064 1038.95 601.762C1039.62 601.286 1019.56 585.078 1019.56 585.078C1019.56 585.078 1014.23 591.908 1008.58 595.884C1008.11 596.207 1007.63 596.473 1007.16 596.683C1007.1 596.721 1007 596.759 1006.91 596.816C1004.11 598.205 994.561 604.482 996.768 609.828L996.787 609.847Z"
        fill="#F7A9A0" />
    <path
        d="M1037.98 600.582C1031.85 603.55 1016.27 609.581 1008.32 598.984C1007.77 598.243 1007.31 597.539 1006.95 596.835C1007.04 596.759 1007.12 596.74 1007.19 596.702C1007.67 596.473 1008.15 596.226 1008.62 595.903C1014.27 591.908 1019.6 585.078 1019.6 585.078C1019.6 585.078 1034.06 596.778 1038 600.582H1037.98Z"
        fill="#263238" />
    <path
        d="M1061.99 591.242C1055.31 597.596 1030.47 604.806 1022.59 601.744C1011.17 597.292 1003.81 584.356 1010.45 573.208C1016.88 562.422 1049.43 553.576 1057.18 557.513C1068.59 563.335 1071.87 581.845 1061.99 591.223V591.242Z"
        fill="#F7A9A0" />
    <path
        d="M1035.55 576.156C1035.55 576.156 1035.51 576.308 1035.45 576.346C1033.76 576.898 1031.91 577.811 1031.89 579.523C1031.89 579.581 1031.8 579.6 1031.8 579.542C1031.4 577.602 1033.87 576.404 1035.56 576.156H1035.55Z"
        fill="#263238" />
    <path
        d="M1037.83 577.031C1039.01 579.657 1033.66 581.806 1032.58 579.371C1031.51 576.974 1036.84 574.825 1037.83 577.031Z"
        fill="#263238" />
    <path
        d="M1032.03 567.082C1032.03 567.082 1031.89 566.987 1031.84 567.006C1030.2 567.71 1028.2 568.262 1027.06 566.987C1027.02 566.949 1026.95 566.987 1026.96 567.044C1027.95 568.775 1030.58 568.014 1032.03 567.082Z"
        fill="#263238" />
    <path
        d="M1033.17 564.914C1032.31 562.174 1026.89 564.096 1027.69 566.645C1028.47 569.137 1033.89 567.216 1033.17 564.914Z"
        fill="#263238" />
    <path
        d="M1041.31 578.154C1041.23 577.355 1041.31 576.594 1041.33 575.795C1041.33 574.882 1041.27 574.159 1041.81 573.398C1042.09 572.98 1042.83 572.865 1043.27 573.113C1044.28 573.683 1044.53 574.806 1044.55 575.89C1044.56 577.07 1044.28 578.002 1043.56 578.934C1042.85 579.847 1041.39 579.238 1041.31 578.173V578.154Z"
        fill="#263238" />
    <path
        d="M1034.78 561.755C1035.2 562.44 1035.7 563.011 1036.19 563.658C1036.74 564.381 1037.11 565.009 1038 565.313C1038.48 565.484 1039.14 565.142 1039.35 564.685C1039.83 563.639 1039.37 562.593 1038.76 561.679C1038.08 560.709 1037.32 560.138 1036.17 559.796C1035.07 559.473 1034.25 560.823 1034.8 561.736L1034.78 561.755Z"
        fill="#263238" />
    <path
        d="M1022.59 582.053C1022.59 579.618 1021.26 577.031 1020.36 575.414C1020.32 575.205 1020.63 574.881 1020.8 574.786L1024.34 573.512C1023.92 573.15 1021.94 571.21 1022.61 570.982C1028.18 569.155 1034.39 567.12 1040.34 566.473C1040.53 566.435 1040.61 566.739 1040.42 566.796C1035.13 568.775 1029.51 569.783 1024.17 571.685C1024.76 572.313 1025.77 573.341 1026.01 574.006C1026.03 574.197 1022.19 575.167 1021.66 575.452C1021.66 575.452 1023.98 578.401 1023.31 581.806C1023.14 582.7 1022.57 583.233 1022.59 582.072V582.053Z"
        fill="#263238" />
    <path
        d="M1018.73 580.113C1018.69 579.029 1021.88 576.08 1022.76 577.602C1023.63 579.124 1024.07 583.252 1022.19 585.573C1020.55 587.59 1020.25 582.244 1019.64 581.597C1019.13 581.065 1018.76 580.893 1018.74 580.113H1018.73Z"
        fill="#263238" />
    <path
        d="M1019.62 581.597C1019.51 581.483 1019.39 581.388 1019.32 581.293C1020.51 580.76 1022.32 581.103 1023.25 583.309C1023.04 584.147 1022.72 584.946 1022.19 585.573C1020.53 587.59 1020.23 582.244 1019.62 581.597Z"
        fill="#FF9ABB" />
    <path
        d="M1020.25 588.655C1019.72 588.408 1019.03 588.218 1018.75 587.647C1018.48 587.095 1018.48 586.315 1018.48 585.725C1018.48 585.668 1018.4 585.63 1018.36 585.687C1017.91 586.353 1017.85 587.419 1018.29 588.122C1018.71 588.807 1019.49 588.94 1020.25 588.845C1020.36 588.845 1020.34 588.693 1020.25 588.655Z"
        fill="#263238" />
    <path
        d="M1042.83 599.308C1039.9 593.62 1045.57 587.551 1051.79 586.505C1051.79 586.505 1043 571.799 1055.2 565.674C1055.2 565.674 1047.51 564.247 1044.28 557.265L1039.84 558.217C1039.62 556.409 1043.42 552.757 1048.67 555.135C1048.67 555.135 1055.03 552.719 1060.75 555.705C1066.48 558.692 1065.99 564.323 1065.99 564.323C1065.99 564.323 1070.61 566.663 1072.36 572.732C1074.09 578.8 1069.89 583.404 1069.89 583.404C1069.89 583.404 1071.73 591.755 1066.82 595.446C1061.9 599.118 1057.01 597.881 1057.01 597.881C1057.01 597.881 1055.69 600.754 1050.58 601.781C1047.28 602.447 1043.73 601.058 1042.83 599.346V599.308Z"
        fill="#263238" />
    <path
        d="M1056.45 565.522C1055.39 565.865 1054.34 566.264 1053.39 566.797C1052.4 567.292 1051.51 567.939 1050.67 568.642C1049.05 570.088 1047.93 572.048 1047.74 574.197C1047.38 576.347 1048.12 578.497 1048.77 580.57C1049.22 581.559 1049.62 582.606 1050.16 583.576C1050.69 584.546 1051.26 585.497 1051.79 586.506C1051.13 585.611 1050.48 584.679 1049.83 583.766C1049.22 582.815 1048.77 581.788 1048.22 580.799C1047.42 578.706 1046.66 576.461 1046.96 574.102C1047.23 571.781 1048.48 569.613 1050.29 568.186C1052.1 566.778 1054.25 565.884 1056.47 565.522H1056.45Z"
        fill="#263238" />
    <path
        d="M1069.89 583.367C1070.71 585.326 1071.14 587.476 1071.12 589.645C1071.12 591.813 1070.42 594.058 1068.96 595.751C1068.19 596.569 1067.3 597.235 1066.35 597.749C1065.4 598.3 1064.35 598.7 1063.29 598.89C1061.14 599.309 1058.83 598.947 1057.03 597.825C1058.99 598.662 1061.17 598.814 1063.15 598.3C1065.11 597.787 1067.03 596.721 1068.38 595.218C1069.07 594.477 1069.58 593.582 1069.94 592.631C1070.27 591.661 1070.48 590.653 1070.55 589.606C1070.71 587.533 1070.44 585.402 1069.93 583.348L1069.89 583.367Z"
        fill="#263238" />
    <path
        d="M1065.99 564.286C1065.87 562.573 1065.53 560.88 1064.9 559.32C1064.27 557.76 1063.32 556.372 1062.03 555.344C1060.75 554.317 1059.16 553.727 1057.5 553.442C1055.85 553.176 1054.11 553.195 1052.42 553.442C1054.06 552.89 1055.83 552.7 1057.58 552.852C1059.33 553.004 1061.1 553.613 1062.52 554.736C1063.93 555.877 1064.94 557.437 1065.47 559.13C1066.01 560.804 1066.22 562.573 1065.99 564.305V564.286Z"
        fill="#263238" />
    <path
        d="M1045.76 560.595C1047.15 562.06 1048.63 563.334 1050.35 564.228C1051.18 564.704 1052.1 565.008 1053.03 565.237C1053.96 565.484 1054.95 565.484 1055.96 565.522C1054.99 565.807 1053.96 565.978 1052.93 565.826C1051.91 565.731 1050.9 565.408 1049.99 564.913C1049.07 564.418 1048.24 563.81 1047.53 563.068C1046.83 562.326 1046.2 561.508 1045.76 560.595Z"
        fill="#263238" />
    <path
        d="M1040.07 594.99C1040.07 594.99 1049.99 596.664 1049.74 600.907C1049.49 605.168 1036.86 606.366 1033.49 603.113C1030.14 599.86 1033.09 596.683 1033.09 596.683L1040.07 594.99Z"
        fill="#F7A9A0" />
    <path
        d="M1046.1 601.154C1046.1 601.154 1046.07 601.268 1046.01 601.23C1043.55 598.985 1040.3 598.757 1037.14 599.004C1038.57 599.346 1039.65 600.202 1039.33 602.048C1039.33 602.143 1039.16 602.124 1039.14 602.048C1038.84 600.792 1038.27 600.069 1036.97 599.727C1036.08 599.498 1035.07 599.498 1034.14 599.46C1033.83 599.46 1033.74 598.928 1034.08 598.89C1034.1 598.89 1034.14 598.89 1034.16 598.89C1037.66 597.14 1043.94 597.539 1046.09 601.173L1046.1 601.154Z"
        fill="#263238" />
    <g opacity="0.2">
        <path
            d="M1030.92 585.744C1030.75 585.839 1030.69 586.048 1030.77 586.22C1030.86 586.391 1031.07 586.448 1031.25 586.372C1031.42 586.277 1031.47 586.067 1031.4 585.896C1031.3 585.725 1031.09 585.668 1030.92 585.744Z"
            fill="black" />
        <path
            d="M1027.78 579.048C1027.61 579.143 1027.55 579.352 1027.63 579.523C1027.72 579.695 1027.93 579.752 1028.11 579.675C1028.28 579.58 1028.33 579.371 1028.26 579.2C1028.16 579.029 1027.95 578.972 1027.78 579.048Z"
            fill="black" />
        <path
            d="M1026.72 582.548C1026.55 582.643 1026.49 582.852 1026.56 583.023C1026.66 583.195 1026.87 583.252 1027.04 583.175C1027.21 583.08 1027.27 582.871 1027.19 582.7C1027.1 582.529 1026.89 582.472 1026.72 582.548Z"
            fill="black" />
        <path
            d="M1033.41 584.203C1033.24 584.298 1033.19 584.507 1033.26 584.679C1033.36 584.85 1033.57 584.907 1033.74 584.831C1033.91 584.736 1033.97 584.526 1033.89 584.355C1033.81 584.184 1033.59 584.127 1033.41 584.203Z"
            fill="black" />
        <path
            d="M1030.03 582.054C1029.86 582.149 1029.8 582.358 1029.87 582.529C1029.97 582.7 1030.18 582.757 1030.35 582.681C1030.52 582.586 1030.58 582.377 1030.5 582.206C1030.41 582.035 1030.2 581.977 1030.03 582.054Z"
            fill="black" />
        <path
            d="M1026.07 563.6C1025.9 563.696 1025.84 563.905 1025.92 564.076C1026.01 564.247 1026.22 564.304 1026.39 564.228C1026.56 564.133 1026.62 563.924 1026.55 563.753C1026.45 563.581 1026.24 563.524 1026.07 563.6Z"
            fill="black" />
        <path
            d="M1025.57 566.968C1025.4 567.063 1025.35 567.272 1025.42 567.443C1025.52 567.614 1025.73 567.671 1025.9 567.595C1026.07 567.5 1026.13 567.291 1026.05 567.12C1025.96 566.949 1025.75 566.892 1025.57 566.968Z"
            fill="black" />
        <path
            d="M1023.2 567.443C1023.03 567.538 1022.97 567.748 1023.04 567.919C1023.14 568.09 1023.35 568.147 1023.52 568.071C1023.69 567.976 1023.75 567.767 1023.67 567.595C1023.58 567.424 1023.37 567.367 1023.2 567.443Z"
            fill="black" />
        <path
            d="M1023.5 564.571C1023.33 564.666 1023.27 564.876 1023.35 565.047C1023.43 565.218 1023.65 565.275 1023.83 565.199C1024 565.104 1024.05 564.895 1023.98 564.723C1023.88 564.552 1023.67 564.495 1023.5 564.571Z"
            fill="black" />
    </g>
    <path
        d="M1020.11 619.416C1020.11 619.416 1029.48 613.271 1029.17 611.978C1028.87 610.684 1017.24 609.6 1013.28 605.757C1009.33 601.914 1007.84 596.302 1007.39 595.598C1006.93 594.894 998.976 601.115 997.397 602.846C995.532 604.882 994.219 607.716 996.445 610.969C1000.57 617.019 1015.11 620.862 1020.11 619.397V619.416Z"
        fill="#E0C8FF" />
    <path
        d="M1026.16 612.358C1023.56 613.785 1021.22 615.707 1019.3 617.989C1021.9 616.563 1024.24 614.641 1026.16 612.358Z"
        fill="#263238" />
    <path
        d="M1007.04 597.12C1004.34 598.395 1001.91 600.145 999.851 602.314C1002.55 601.039 1004.99 599.27 1007.04 597.12Z"
        fill="#263238" />
    <path
        d="M1006.89 600.507C1003.41 602.352 1000.17 604.673 997.32 607.393C1000.8 605.548 1004.04 603.227 1006.89 600.507Z"
        fill="#263238" />
    <path
        d="M1008.91 604.14C1005.43 605.985 1002.19 608.306 999.337 611.026C1002.82 609.181 1006.05 606.86 1008.91 604.14Z"
        fill="#263238" />
    <path
        d="M1012.64 607.354C1009.15 609.2 1005.92 611.521 1003.07 614.241C1006.55 612.396 1009.78 610.075 1012.64 607.354Z"
        fill="#263238" />
    <path
        d="M1016.58 609.657C1013.25 611.388 1010.16 613.595 1007.48 616.201C1010.81 614.47 1013.87 612.263 1016.58 609.657Z"
        fill="#263238" />
    <path
        d="M1021.26 611.312C1018.33 612.91 1015.68 614.983 1013.42 617.437C1016.35 615.839 1018.99 613.766 1021.26 611.312Z"
        fill="#263238" />
    <path
        d="M1018.95 628.319C1016.98 629.08 1014.73 629.366 1012.28 628.947C1005.01 627.73 996.502 620.101 993.896 610.19C992.241 603.855 993.211 599.175 995.57 596.074C998.158 609.904 1007.52 622.137 1018.97 628.319H1018.95Z"
        fill="#455A64" />
    <path
        d="M1084.73 602.105C1092.11 579.371 1082.92 547.431 1047.82 543.778C1023.54 541.248 1001.83 556.98 995.627 575.548C986.856 601.8 1007.39 629.841 1030.01 633.323C1047.19 635.967 1076.95 626.151 1084.73 602.124V602.105ZM1027.73 617.837C1011.27 614.451 995.665 591.547 1001.3 570.83C1005.25 556.22 1020.5 544.273 1038.13 546.974C1063.61 550.874 1072.86 575.985 1068.14 593.906C1063.17 612.853 1040.19 620.406 1027.73 617.818V617.837Z"
        fill="#E0C8FF" />
    <path opacity="0.1"
        d="M1027.73 617.838C1011.27 614.452 995.665 591.547 1001.3 570.83C1005.25 556.22 1020.49 544.273 1038.13 546.974C1063.61 550.874 1072.86 575.986 1068.14 593.906C1063.17 612.854 1040.19 620.406 1027.73 617.819V617.838Z"
        fill="#455A64" />
    <path opacity="0.1"
        d="M1027.73 617.838C1011.27 614.452 995.665 591.547 1001.3 570.83C1005.25 556.22 1020.49 544.273 1038.13 546.974C1063.61 550.874 1072.86 575.986 1068.14 593.906C1063.17 612.854 1040.19 620.406 1027.73 617.819V617.838Z"
        fill="#455A64" />
    <g opacity="0.2">
        <path
            d="M1065.91 568.186C1049.93 561.394 1032.58 556.125 1014.16 552.72C1017.89 550.056 1022.21 548.135 1026.87 547.222C1037.7 549.752 1048.08 552.948 1058.05 556.676C1061.46 560.025 1064.07 563.963 1065.91 568.186Z"
            fill="white" />
        <path
            d="M1041.48 617.286C1036.44 618.466 1031.59 618.637 1027.73 617.838C1022.85 616.83 1018.06 614.109 1013.87 610.267C1023.46 611.998 1032.67 614.357 1041.5 617.286H1041.48Z"
            fill="white" />
        <path
            d="M1068.25 575.263C1050.1 567.178 1030.07 561.109 1008.6 557.647C1008.97 557.228 1009.35 556.829 1009.75 556.448C1030.62 559.93 1050.12 565.827 1067.85 573.665C1068 574.197 1068.14 574.73 1068.25 575.263Z"
            fill="white" />
        <path
            d="M1056.15 610.704C1040.23 604.102 1022.72 599.289 1004.04 596.721C1003.81 596.265 1003.6 595.789 1003.41 595.313C1022.78 597.92 1040.89 602.942 1057.31 609.848C1056.93 610.133 1056.55 610.418 1056.15 610.704Z"
            fill="white" />
        <path
            d="M1047.76 615.288C1047.17 615.517 1046.6 615.745 1045.99 615.954C1034.84 611.978 1022.99 608.896 1010.54 606.823C1010.13 606.347 1009.71 605.853 1009.31 605.339C1022.85 607.489 1035.72 610.875 1047.74 615.307L1047.76 615.288Z"
            fill="white" />
        <path
            d="M1064.67 601.858C1045.42 593.069 1023.75 586.81 1000.36 583.899C1000.17 582.301 1000.1 580.684 1000.14 579.067C1024.4 582.111 1046.87 588.674 1066.75 597.901C1066.14 599.29 1065.45 600.602 1064.66 601.858H1064.67Z"
            fill="white" />
    </g>
    <path
        d="M1050.31 638.155C1056.21 638.193 1066.52 634.141 1069.37 626.95C1072.08 620.139 1069.15 611.407 1057.08 611.826C1048.75 612.111 1041.16 617.514 1038.89 623.088C1035.68 630.964 1042.55 638.117 1050.31 638.174V638.155Z"
        fill="#E0C8FF" />
    <path opacity="0.1"
        d="M1050.31 638.155C1056.21 638.193 1066.52 634.141 1069.37 626.95C1072.08 620.139 1069.15 611.407 1057.08 611.826C1048.75 612.111 1041.16 617.514 1038.89 623.088C1035.68 630.964 1042.55 638.117 1050.31 638.174V638.155Z"
        fill="black" />
    <path
        d="M1052.78 638.992C1057.31 639.011 1065.25 635.91 1067.43 630.374C1069.51 625.142 1067.26 618.427 1057.98 618.751C1051.57 618.979 1045.74 623.126 1043.99 627.406C1041.52 633.456 1046.81 638.954 1052.76 638.992H1052.78Z"
        fill="#E0C8FF" />
    <path
        d="M1002.31 648.522C968.343 647.951 921.594 627.995 910.578 620.652C893.816 609.485 900.361 545.642 900.875 532.763C901.084 527.265 950.191 536.72 950.077 542.598C949.982 547.715 943.247 596.796 945.111 597.9C946.672 598.832 980.691 616.923 1003.31 630.164C1022.82 641.578 1011.29 648.674 1002.31 648.522Z"
        fill="#F7A9A0" />
    <path
        d="M948.898 554.088C948.898 554.088 949.831 545.699 949.888 545.147C950.04 543.264 950.573 541.247 952.323 536.815C956.433 526.352 959.725 498.215 936.512 476.757C927.627 468.538 917.961 471.183 925.686 481.36C931.128 488.532 935.504 493.041 936.626 495.876C936.626 495.876 923.27 492.47 917.181 497.626C914.46 499.928 907.192 506.415 902.245 512.255C902.245 512.255 903.235 513.682 904.738 515.299C904.738 515.299 897.279 522.052 900.894 532.763L900.019 547.049L948.917 554.069L948.898 554.088Z"
        fill="#A6A6A6" />
    <path
        d="M954.625 526.199C952.627 520.644 948.213 508.963 941.287 500.669C933.582 491.443 916.248 475.748 909.494 481.512C904.547 485.735 910.636 492.299 910.636 492.299C910.636 492.299 902.112 487.314 898.459 492.108C895.148 496.484 900.152 501.278 900.152 501.278C900.152 501.278 894.463 499.147 892.085 503.979C889.212 509.781 901.617 513.282 903.805 521.671C904.3 523.555 954.625 526.199 954.625 526.199Z"
        fill="#A6A6A6" />
    <path
        d="M932.897 510.428C930.176 505.52 921.12 495.951 910.883 492.241C910.655 492.165 910.465 492.279 910.655 492.412C921.063 498.881 929.453 506.89 932.802 510.504C932.84 510.561 932.916 510.504 932.897 510.428Z"
        fill="#263238" />
    <path
        d="M923.345 517.924C920.548 513.929 910.788 504.493 900.285 501.088C900.057 501.012 899.866 501.164 900.076 501.259C911.225 507.575 919.692 514.595 923.269 517.981C923.326 518.019 923.383 517.962 923.345 517.905V517.924Z"
        fill="#263238" />
    <path
        d="M948.898 554.088L900 547.068C900 547.068 895.072 550.683 894.577 563.638C894.083 576.574 898.935 613.423 907.953 620.69C916.972 627.957 960.733 645.345 991.708 649.016C1022.68 652.688 1017.34 635.985 1003.09 628.946C988.854 621.908 946.958 597.614 946.444 596.777C945.93 595.94 950.782 573.74 951.182 565.902C951.581 558.064 948.898 554.107 948.898 554.107V554.088Z"
        fill="#E0C8FF" />
    <path
        d="M953.351 601.039C955.824 602.808 958.355 604.444 960.904 606.061C963.454 607.697 966.06 609.219 968.648 610.76C971.274 612.263 973.899 613.766 976.563 615.155L980.578 617.247C981.948 617.894 983.279 618.598 984.687 619.226C983.47 618.332 982.195 617.514 980.958 616.638L977.134 614.184C974.584 612.548 971.978 611.027 969.371 609.486C966.745 607.983 964.12 606.48 961.437 605.072C958.773 603.664 956.071 602.257 953.312 601.001L953.351 601.039Z"
        fill="#263238" />
    <path
        d="M976.963 614.679C977.971 615.154 978.999 615.44 980.026 615.706C981.073 615.953 982.1 616.144 983.204 616.277C982.766 615.934 982.252 615.706 981.758 615.497C981.244 615.288 980.73 615.135 980.197 615.002C979.151 614.755 978.066 614.603 976.963 614.679Z"
        fill="#263238" />
    <path
        d="M912.69 623.734C915.126 625.218 917.675 626.531 920.206 627.882C922.775 629.156 925.343 630.393 927.95 631.572C933.163 633.95 938.491 636.024 943.875 637.983C949.279 639.847 954.739 641.598 960.276 643.024C965.813 644.508 971.426 645.631 977.076 646.506C974.318 645.726 971.54 645.136 968.8 644.299C966.041 643.557 963.301 642.796 960.58 641.94L952.418 639.41C949.716 638.497 947.014 637.622 944.351 636.613C938.966 634.787 933.658 632.695 928.387 630.545C923.117 628.395 917.885 626.131 912.69 623.734Z"
        fill="#263238" />
    <path
        d="M967.201 644.299C968.019 645.136 968.933 645.764 969.884 646.372C970.854 646.943 971.844 647.476 972.947 647.837C972.148 647 971.216 646.372 970.264 645.764C969.294 645.193 968.305 644.66 967.201 644.299Z"
        fill="#263238" />
    <path opacity="0.1"
        d="M944.789 561.698C939.385 560.576 933.924 559.739 928.464 558.921C923.06 558.122 917.657 557.342 912.253 556.581C909.152 556.143 906.05 555.725 902.949 555.382C902.74 555.363 902.721 555.553 902.93 555.591C908.334 556.657 913.813 557.475 919.255 558.35C924.639 559.206 930.043 560.062 935.446 560.823C938.548 561.26 941.649 561.66 944.75 561.964C945.055 561.983 945.074 561.736 944.789 561.679V561.698Z"
        fill="black" />
</svg>
    